<?xml version="1.0" encoding="UTF-8"?>
<svg version="1.1" xmlns="http://www.w3.org/2000/svg" width="2349" height="2479">
<path d="M0 0 C0.74074768 0.06316406 1.48149536 0.12632812 2.24468994 0.19140625 C85.46677504 7.31294587 167.73108304 25.84675014 291.14453125 77.65820312 C293.77766921 78.89552582 296.41805197 80.11521044 299.0625 81.328125 C310.29688419 86.51091474 321.14276107 92.2947209 331.95166016 98.30957031 C335.20399202 100.11312196 338.46649033 101.89730704 341.73046875 103.6796875 C355.12168755 111.01528718 368.24777792 118.59737305 381 127 C382.14514828 127.75200491 383.29033296 128.50395442 384.43554688 129.25585938 C399.52962559 139.17804954 414.50001501 149.22107571 429 160 C430.64450706 161.21097035 432.28903941 162.42190636 433.93359375 163.6328125 C444.91227878 171.75496461 455.5515172 180.20869764 466 189 C467.19778825 190.00145569 468.39569979 191.00276396 469.59375 192.00390625 C475.41517806 196.88434551 481.13584994 201.86259763 486.7578125 206.97265625 C488.71208424 208.73967199 490.69059737 210.46913529 492.6875 212.1875 C504.38082975 222.40623185 515.45921807 233.29519642 526.41894531 244.28857422 C528.52293737 246.39799657 530.63232035 248.50192439 532.7421875 250.60546875 C534.10969622 251.97363735 535.4768952 253.34211561 536.84375 254.7109375 C537.46052612 255.32568939 538.07730225 255.94044128 538.71276855 256.57382202 C542.439801 260.32070879 545.97946252 264.1852069 549.4281311 268.1900177 C551.83826549 270.96524952 554.36075305 273.63199038 556.875 276.3125 C561.35867269 281.13236077 565.6162423 286.07503978 569.73828125 291.2109375 C571.74640819 293.68728056 573.80137255 296.11479523 575.88085938 298.53125 C582.39925663 306.11899915 588.45600542 314.02518557 594.48486328 322.00439453 C595.84203403 323.79194105 597.2109756 325.56901308 598.58984375 327.33984375 C608.58259181 340.18303534 618.11988504 353.36209868 627 367 C627.9487579 368.43389878 628.89801829 369.86746516 629.84765625 371.30078125 C641.52059191 388.99834117 652.58220406 407.13626568 662.76123047 425.73730469 C663.66802504 427.39362555 664.57911464 429.04759698 665.49267578 430.70019531 C703.85642297 500.19227095 731.58832429 575.10069013 763.74285889 747.52856445 C763.98911816 749.89541239 764.24442673 752.26114919 764.50048828 754.62695312 C769.94896264 806.14046296 769.58974455 860.52167196 764 912 C763.82108535 913.70212704 763.64238053 915.40427614 763.46386719 917.10644531 C754.72962392 999.28270053 734.08910061 1079.83187627 689 1185 C688.45988281 1186.15999512 687.91976563 1187.31999023 687.36328125 1188.51513672 C680.57522533 1203.01231196 673.39635181 1217.22492557 665.56982422 1231.18847656 C663.90697548 1234.16660503 662.26690581 1237.1565764 660.62890625 1240.1484375 C652.94216387 1254.12521518 644.76389629 1267.67407551 636 1281 C635.34708984 1281.99451172 634.69417969 1282.98902344 634.02148438 1284.01367188 C617.32712712 1309.38333271 599.71925107 1333.86733187 580.39160156 1357.30859375 C578.39381881 1359.73677601 576.41818576 1362.18286415 574.4375 1364.625 C566.29616272 1374.54911187 557.91484308 1384.22865598 549.15405273 1393.61035156 C546.7371896 1396.20140009 544.34388939 1398.8128874 541.956604 1401.4312439 C535.20933526 1408.80877771 528.22470417 1415.92953226 521.14404297 1422.98632812 C519.23417006 1424.89078505 517.32977851 1426.80060819 515.42578125 1428.7109375 C509.97783277 1434.16185021 504.54905769 1439.57686863 498.67333984 1444.57177734 C495.92746675 1446.9154245 493.31997743 1449.4057802 490.6875 1451.875 C485.89004372 1456.33826707 480.96837627 1460.56974429 475.85546875 1464.671875 C473.22819634 1466.81394662 470.6664298 1469.01096666 468.11181641 1471.23803711 C460.38395806 1477.9654235 452.34239065 1484.20099022 444.16015625 1490.36328125 C442.04310537 1491.96733969 439.94119608 1493.58916524 437.84375 1495.21875 C396.9269904 1526.95778358 352.19297416 1553.72900787 306 1577 C305.40165344 1577.3020636 304.80330688 1577.6041272 304.18682861 1577.91534424 C271.44744256 1594.42120984 237.66755161 1608.10082007 203 1620 C202.33286987 1620.22925171 201.66573975 1620.45850342 200.97839355 1620.69470215 C136.23016699 1642.8761112 68.5982824 1656.16971066 0.4375 1661.75 C-0.64159637 1661.83888489 -0.64159637 1661.83888489 -1.74249268 1661.92956543 C-22.65817526 1663.62048965 -43.58313992 1664.20906953 -64.5625 1664.1875 C-65.66461823 1664.18689575 -66.76673645 1664.1862915 -67.9022522 1664.18566895 C-152.20160712 1664.06142636 -236.20673579 1651.20193605 -325 1623 C-325.96462158 1622.68705994 -325.96462158 1622.68705994 -326.94873047 1622.36779785 C-365.52172791 1609.81244124 -402.5818141 1593.80872258 -439 1576 C-440.31556885 1575.36263916 -440.31556885 1575.36263916 -441.65771484 1574.71240234 C-505.98642722 1543.53058845 -566.6977911 1501.34983029 -619.5234375 1453.23046875 C-621.61866761 1451.34343974 -623.73316231 1449.48463399 -625.859375 1447.6328125 C-637.54665123 1437.41900765 -648.5798287 1426.52189559 -659.5625 1415.5625 C-660.12684753 1415.00074066 -660.69119507 1414.43898132 -661.27264404 1413.86019897 C-666.84605526 1408.30695851 -672.36893165 1402.75172888 -677.48120117 1396.76391602 C-680.01816019 1393.81752011 -682.70760339 1391.01530776 -685.375 1388.1875 C-690.02315533 1383.22026907 -694.44478536 1378.14423967 -698.69921875 1372.83203125 C-701.35910502 1369.55797769 -704.1127464 1366.37505296 -706.875 1363.1875 C-744.43081387 1319.60903041 -775.60160447 1270.19338806 -802.62792969 1219.55615234 C-803.78024406 1217.40940297 -804.94856836 1215.27374918 -806.1328125 1213.14453125 C-829.38242302 1170.87693388 -846.32037832 1124.80852456 -861 1079 C-861.21182922 1078.34 -861.42365845 1077.68 -861.64190674 1077 C-878.09822315 1025.58602878 -888.5197228 972.14209244 -894.25 918.5 C-894.32713226 917.78943451 -894.40426453 917.07886902 -894.48373413 916.34677124 C-895.06602586 910.90387843 -895.55504472 905.45576047 -896 900 C-896.08720306 898.93317993 -896.17440613 897.86635986 -896.26425171 896.76721191 C-897.91280979 875.90106803 -898.36614982 855.13246377 -898.31805801 834.20956802 C-898.31240183 831.70655503 -898.30959109 829.20354886 -898.30697632 826.70053101 C-898.26803957 801.03145293 -897.6907759 775.5471305 -895 750 C-894.91514343 749.17048828 -894.83028687 748.34097656 -894.74285889 747.48632812 C-886.01056017 662.17053294 -864.78608441 577.58171825 -819.8828125 476.86920166 C-819.01034324 475.02190001 -818.14306714 473.17224875 -817.27734375 471.32177734 C-810.04917663 455.9032248 -802.3598025 440.8338062 -794 426 C-793.38753418 424.9054248 -792.77506836 423.81084961 -792.14404297 422.68310547 C-763.24178839 371.04817895 -728.86700373 322.07281518 -689.02734375 278.2421875 C-687.26032801 276.28791576 -685.53086471 274.30940263 -683.8125 272.3125 C-673.72771866 260.77068898 -662.98961093 249.82483442 -652.13867188 239.00830078 C-650.10167579 236.976738 -648.07018049 234.93978164 -646.0390625 232.90234375 C-644.71646683 231.58040793 -643.39356151 230.25878183 -642.0703125 228.9375 C-641.47743439 228.34259766 -640.88455627 227.74769531 -640.27371216 227.13476562 C-636.5803524 223.46165817 -632.76402688 219.97957627 -628.81767273 216.57955933 C-626.0404771 214.16617369 -623.3706385 211.64173903 -620.6875 209.125 C-615.89004372 204.66173293 -610.96837627 200.43025571 -605.85546875 196.328125 C-603.22841753 194.18623372 -600.6668348 191.98946349 -598.11254883 189.76245117 C-590.42362605 183.0696204 -582.43897313 176.84218845 -574.2890625 170.72265625 C-571.94618222 168.95949891 -569.61317494 167.18386491 -567.28125 165.40625 C-535.40626886 141.18946039 -501.67191549 119.42325579 -466.47216797 100.34570312 C-463.67311727 98.82206423 -460.88585157 97.27778464 -458.09765625 95.734375 C-442.38006348 87.08909677 -426.35953513 79.3491848 -410 72 C-408.9392627 71.51934082 -407.87852539 71.03868164 -406.78564453 70.54345703 C-329.41676081 35.52741952 -246.84225829 13.02514576 -131 0 C-130.30694763 -0.06058594 -129.61389526 -0.12117188 -128.89984131 -0.18359375 C-86.37445863 -3.87799519 -42.51733884 -3.71682279 0 0 Z " fill="#FFCC00" transform="translate(1271,397)"/>
<path d="M0 0 C4.13562253 3.98955197 6.816229 7.18689005 7.203125 13.109375 C7.21859375 14.31078125 7.2340625 15.5121875 7.25 16.75 C7.27578125 17.94109375 7.3015625 19.1321875 7.328125 20.359375 C6.68067175 27.54302298 2.81768548 33.16610479 -0.9375 39.125 C-32.73379752 90.50832817 -53.52366159 146.40050176 -73.51464844 203.13671875 C-103.88824057 289.33264525 -103.88824057 289.33264525 -119 322 C-119.40927734 322.88478027 -119.81855469 323.76956055 -120.24023438 324.68115234 C-122.46349415 329.46867913 -124.71559259 334.24136335 -127 339 C-132.75 338.25 -132.75 338.25 -135 336 C-135.55908203 333.69458008 -135.55908203 333.69458008 -136.0078125 330.76953125 C-136.18530029 329.67261963 -136.36278809 328.57570801 -136.5456543 327.44555664 C-136.73683838 326.24664795 -136.92802246 325.04773926 -137.125 323.8125 C-147.68066023 261.84352921 -173.88922074 202.21422787 -207 149 C-207.45874512 148.26185059 -207.91749023 147.52370117 -208.39013672 146.76318359 C-219.66221498 128.67508439 -231.57145746 111.11807287 -244.0078125 93.8125 C-287.16911416 33.56974355 -287.16911416 33.56974355 -283 5 C-281.01938879 0.08622555 -279.3969547 -2.22541019 -274.609375 -4.3046875 C-258.06571209 -8.71302882 -240.72333193 -1.17781614 -225.59985352 4.82592773 C-194.792037 16.90054222 -157.91667408 8.44963943 -126.2578125 3.61328125 C-125.55029406 3.50536507 -124.84277561 3.39744888 -124.11381721 3.28626251 C-116.91662414 2.18810463 -109.72054658 1.08424703 -102.52986717 -0.05586815 C-88.10571625 -2.3391272 -73.70375063 -4.38677487 -59.1640625 -5.78515625 C-57.9080574 -5.90617203 -56.65205231 -6.02718781 -55.35798645 -6.15187073 C-13.03325491 -10.00373319 -13.03325491 -10.00373319 0 0 Z " fill="#FFCC00" transform="translate(1337,2140)"/>
<path d="M0 0 C15.96677289 9.61298492 19.99692503 39.00134215 24.1875 55.375 C30.98413536 81.44348022 48.13509592 104.4784066 63.61474609 126.06005859 C67.83809271 131.97453026 71.92022907 137.98605743 76 144 C76.73847168 145.08539062 77.47694336 146.17078125 78.23779297 147.2890625 C119.749356 208.37769265 119.749356 208.37769265 116.57421875 231.59375 C115.15948009 237.52217866 112.15380233 241.67866072 107 245 C91.33716169 254.43250929 68.85763332 251.1469472 51.43017578 250.88354492 C30.29745298 250.58862242 9.84613824 252.06670148 -10.8125 256.6875 C-11.96862793 256.94168701 -13.12475586 257.19587402 -14.31591797 257.45776367 C-51.92460073 265.97413951 -87.76442671 280.5369114 -123.484375 294.77734375 C-151.15144018 305.80198131 -178.77408711 316.7090726 -207.5 324.6875 C-208.62417328 325.00093857 -208.62417328 325.00093857 -209.77105713 325.32070923 C-232.77387982 331.68351032 -232.77387982 331.68351032 -238.59619141 330.44995117 C-241.33834014 329.93666861 -242.29700615 330.22545972 -244.7421875 331.46875 C-245.41636719 331.79230469 -246.09054688 332.11585938 -246.78515625 332.44921875 C-248.17215299 333.14660589 -249.55759109 333.84710208 -250.94140625 334.55078125 C-255.65568664 336.80465626 -258.76648934 337.5215219 -264 336 C-264.99 334.515 -264.99 334.515 -266 333 C-265.28714844 332.2265625 -264.57429688 331.453125 -263.83984375 330.65625 C-257.60190584 323.8892368 -257.60190584 323.8892368 -251.5 317 C-246.77900368 311.56471582 -241.88522637 306.28714658 -237 301 C-236.4539209 300.40735352 -235.9078418 299.81470703 -235.34521484 299.20410156 C-228.55207948 291.8382383 -221.69792949 284.56272932 -214.52587891 277.56274414 C-211.80287486 274.88656542 -209.23221656 272.14475461 -206.74609375 269.24609375 C-201.61989725 263.31921538 -195.96163245 257.91742898 -190.3828125 252.421875 C-185.92580167 248.00550561 -181.63490327 243.53665241 -177.55078125 238.7734375 C-175.31623757 236.21806514 -172.92898253 233.87183 -170.5 231.5 C-166.81511037 227.86440864 -163.29264096 224.15387033 -159.93359375 220.21484375 C-157.900956 217.8865496 -155.80584597 215.62823267 -153.69628906 213.36987305 C-148.62024475 207.93497227 -143.7844228 202.39466492 -139.12890625 196.58984375 C-137.08079578 194.09828918 -134.94496742 191.73727891 -132.75 189.375 C-126.94451332 182.9940129 -121.83055154 176.09157053 -116.65527344 169.19921875 C-115.06321096 167.08398294 -113.45932679 164.978315 -111.8515625 162.875 C-105.59525319 154.65960404 -99.73898751 146.25911204 -94.07568359 137.62646484 C-90.7926176 132.66237369 -87.35926062 127.79727105 -83.76953125 123.05078125 C-65.94128368 99.29904786 -54.19372628 70.59182263 -41.69140625 43.79638672 C-18.54782908 -5.66826695 -18.54782908 -5.66826695 0 0 Z " fill="#FFCC00" transform="translate(293,1499)"/>
<path d="M0 0 C3.48966691 1.41305953 4.84023037 2.85682079 6.6640625 6.12109375 C7.37912964 7.38409302 7.37912964 7.38409302 8.10864258 8.67260742 C8.60904053 9.58502197 9.10943848 10.49743652 9.625 11.4375 C10.15569092 12.39052002 10.68638184 13.34354004 11.2331543 14.32543945 C12.32088659 16.28733252 13.40283535 18.25244319 14.47900391 20.22070312 C15.79757704 22.63011509 17.13571811 25.02703799 18.48046875 27.421875 C33.83399189 55.20979296 44.92959518 85.43625505 56.72045898 114.8364563 C81.48119471 181.5315151 81.48119471 181.5315151 118.91894531 241.27368164 C126.85477147 251.38213183 128.16706329 263.4150096 130.4375 275.75 C130.87192135 277.98875368 131.30875272 280.22704112 131.74804688 282.46484375 C138.8008152 318.78775748 138.8008152 318.78775748 133 331 C130.35671863 334.18748636 127.90327251 335.25930557 123.9375 336.0625 C118.73185245 336.43984513 114.91626891 334.50992418 110.25 332.3984375 C100.54443871 328.22224646 90.12031577 326.54453178 79.75 324.875 C78.31793213 324.63704712 78.31793213 324.63704712 76.85693359 324.39428711 C54.71266543 321.03218863 32.19386571 320.6541672 9.83987427 320.10916138 C2.34841428 319.92570147 -5.14221146 319.71142958 -12.6328125 319.49609375 C-13.36055563 319.47525663 -14.08829876 319.45441952 -14.83809471 319.43295097 C-97.40547085 317.05319177 -97.40547085 317.05319177 -113 301 C-116.4444779 295.9185425 -117.96672877 291.19996318 -117 285 C-115.80877303 281.97038053 -114.19448478 279.27312718 -112.5 276.5 C-111.57029615 274.90256393 -110.64325415 273.30357598 -109.71875 271.703125 C-109.25597656 270.90970703 -108.79320312 270.11628906 -108.31640625 269.29882812 C-104.91165596 263.35314402 -101.96264594 257.17414859 -99 251 C-98.45206787 249.87440674 -98.45206787 249.87440674 -97.89306641 248.72607422 C-79.06890461 209.82811282 -67.20454169 167.68684253 -53.99549866 126.67382812 C-39.90358431 82.93176954 -25.40991677 38.72167209 0 0 Z " fill="#FFCC00" transform="translate(1312,0)"/>
<path d="M0 0 C17.67118351 11.86678017 24.0439236 37.48734315 28.08984375 57.1640625 C32.46228607 79.89073514 34.31207957 102.71693085 34.08203125 125.82421875 C34.07021442 127.09789716 34.07021442 127.09789716 34.05815887 128.39730644 C33.97972796 136.27028892 33.86193678 144.14246786 33.7121582 152.0144043 C32.77191124 178.45916043 32.77191124 178.45916043 39.1133728 203.86386108 C40.04879259 206.11755532 40.88638903 208.39200803 41.71020508 210.6887207 C43.1278643 214.62225668 44.60133449 218.531345 46.09515381 222.43649292 C62.98967065 266.79927194 62.98967065 266.79927194 60 282 C56.78688525 287.60655738 56.78688525 287.60655738 54 289 C44.85175547 290.14657037 39.53593466 288.41096085 32.3125 282.9375 C30.48811531 281.64185256 28.65981911 280.35169939 26.828125 279.06640625 C25.88001953 278.39496582 24.93191406 277.72352539 23.95507812 277.03173828 C18.95613407 273.59475775 13.7724636 270.47933869 8.5625 267.375 C6.98456665 266.43454834 6.98456665 266.43454834 5.37475586 265.47509766 C-17.61980932 251.88024825 -41.44468819 239.71754575 -65.34765625 227.8125 C-66.06389412 227.45568838 -66.78013199 227.09887676 -67.51807404 226.73125267 C-74.19329066 223.40675584 -80.8710065 220.0872974 -87.55102539 216.77246094 C-104.11554437 208.55033627 -120.60194763 200.26572388 -136.75358582 191.24899292 C-139.81973078 189.54423457 -142.90180734 187.86935271 -145.98527527 186.19618225 C-161.97677822 177.4685358 -177.40337911 167.746299 -192.26464844 157.21386719 C-193.9207322 156.05544732 -195.60439461 154.93675512 -197.2890625 153.8203125 C-204.4464997 148.96685245 -207.25918487 145.22244538 -210 137 C-210.82028226 127.92310619 -209.9790115 121.84513253 -204.1875 114.79296875 C-188.70944584 98.09146546 -163.68911261 89.8835707 -143.25 80.9375 C-117.77850637 69.75202816 -117.77850637 69.75202816 -95 54 C-94.33355469 53.49339844 -93.66710938 52.98679687 -92.98046875 52.46484375 C-87.01837883 47.8016841 -83.17755048 41.51094042 -79.2265625 35.140625 C-76.49815784 31.29213842 -73.4065896 28.06464693 -70.0625 24.75 C-69.40080811 24.09322266 -68.73911621 23.43644531 -68.05737305 22.75976562 C-51.20330916 6.2986878 -24.0898756 -14.35141525 0 0 Z " fill="#FFCC00" transform="translate(1716,2022)"/>
<path d="M0 0 C13.72223815 10.12103329 21.50881094 22.87364867 29.27877808 37.76858521 C36.11282576 50.84790943 43.32310727 63.66033511 50.85498047 76.35205078 C52.87134657 79.75642211 54.87513528 83.16795082 56.875 86.58203125 C57.23028778 87.1885553 57.58557556 87.79507935 57.95162964 88.41998291 C58.67598525 89.65676325 59.40027894 90.89357986 60.12451172 92.13043213 C61.56891374 94.59676637 63.01437396 97.06247947 64.45993042 99.52813721 C65.17249909 100.74355344 65.88500346 101.95900737 66.59744263 103.17449951 C68.28796368 106.05869473 69.97914571 108.94249683 71.67138672 111.82568359 C79.1820184 124.62510854 86.66371681 137.43243895 93.71484375 150.4921875 C94.17568359 151.34538574 94.63652344 152.19858398 95.11132812 153.07763672 C109.54713347 179.94962818 122.39486588 207.58169935 130.96484375 236.9296875 C131.18197021 237.65091797 131.39909668 238.37214844 131.62280273 239.11523438 C132.40103037 241.96745782 132.88060663 243.9629873 131.984375 246.82421875 C129.48664269 250.10585474 126.62241065 251.97226795 122.63671875 253.05859375 C120.02950993 253.34575136 118.23548287 253.24795702 115.71484375 252.4921875 C113.33530712 250.55683104 111.39094204 248.39836126 109.328125 246.12890625 C75.80664825 212.30678845 13.93407236 211.17684088 -30.390625 207.08984375 C-133.86389785 197.53985404 -133.86389785 197.53985404 -157.28515625 177.4921875 C-158.0225 176.87730469 -158.75984375 176.26242187 -159.51953125 175.62890625 C-165.8926595 169.84277665 -171.53877392 161.26406045 -172.28515625 152.4921875 C-170.95263672 150.54199219 -170.95263672 150.54199219 -168.90234375 148.6640625 C-167.77928833 147.60155273 -167.77928833 147.60155273 -166.63354492 146.51757812 C-165.40921753 145.39125977 -165.40921753 145.39125977 -164.16015625 144.2421875 C-155.49573493 135.93191627 -148.2778152 127.21858366 -141.28515625 117.4921875 C-140.24470576 116.07202486 -139.20302904 114.65275982 -138.16015625 113.234375 C-130.64662073 102.96857363 -123.40233193 92.51513584 -116.15234375 82.0625 C-108.05706313 70.3933029 -99.9317635 58.76259281 -91.28515625 47.4921875 C-90.66157227 46.67137695 -90.66157227 46.67137695 -90.02539062 45.83398438 C-83.67669459 37.49132751 -77.00370696 29.59444454 -69.74951172 22.02392578 C-68.33423425 20.54352384 -66.93657236 19.04793351 -65.5390625 17.55078125 C-48.95116084 0.24061972 -22.9253587 -15.12681788 0 0 Z " fill="#FFCC00" transform="translate(1998.28515625,1783.5078125)"/>
<path d="M0 0 C14.66590617 5.20639669 27.11667927 16.57396987 38.84375 26.45703125 C39.45637695 26.97056152 40.06900391 27.4840918 40.70019531 28.01318359 C47.7065634 33.89724583 54.55242282 39.93178081 61.23120117 46.18579102 C64.02760007 48.80225334 66.86293547 51.35914034 69.75390625 53.87109375 C73.72613653 57.33027575 77.5771825 60.90327033 81.40625 64.51953125 C82.80976034 65.83998779 84.21340948 67.1602968 85.6171875 68.48046875 C86.32069336 69.14272461 87.02419922 69.80498047 87.74902344 70.48730469 C92.83833068 75.27291434 97.94871219 80.03595141 103.06201172 84.79589844 C104.80609156 86.4219219 106.54582038 88.05249874 108.28515625 89.68359375 C115.82989027 96.73520069 123.61058085 103.379783 131.76171875 109.73046875 C136.61039964 113.56491814 140.5628926 117.10875619 144.0859375 122.171875 C151.58997229 131.92712022 161.32022584 139.74031606 171.07763672 147.11425781 C174.02883345 149.35804853 176.93373803 151.66025266 179.84375 153.95703125 C181.00626163 154.87141014 182.1690223 155.78547249 183.33203125 156.69921875 C183.90904785 157.15264648 184.48606445 157.60607422 185.08056641 158.07324219 C186.86861144 159.47654311 188.65867805 160.87722897 190.44921875 162.27734375 C197.65430938 167.91500429 204.83302422 173.5777499 211.84375 179.45703125 C212.70871094 180.17375 213.57367187 180.89046875 214.46484375 181.62890625 C221.36893072 187.55570237 230.69837636 196.13196728 232.1796875 205.60546875 C232.27547573 211.06539784 231.71645053 214.30096239 227.84375 218.45703125 C218.19415789 225.43411477 206.47339542 227.73658167 194.90625 229.14453125 C171.38361398 232.499137 150.06897386 244.92913354 130.84375 258.45703125 C129.81894531 259.16859375 128.79414062 259.88015625 127.73828125 260.61328125 C120.52479621 265.66583699 113.51927344 270.97326456 106.53125 276.33203125 C97.45941497 283.27944408 88.28204851 290.01606085 78.84375 296.45703125 C78.18020508 296.91384277 77.51666016 297.3706543 76.83300781 297.84130859 C64.7264444 306.12675629 51.96119365 312.91627237 38.84375 319.45703125 C37.93077148 319.91480957 37.01779297 320.37258789 36.07714844 320.84423828 C33.50632966 322.12589875 30.9277233 323.3896339 28.34375 324.64453125 C27.58529785 325.01916504 26.8268457 325.39379883 26.04541016 325.77978516 C20.76059293 328.29438323 15.97571679 330.07208322 10.0390625 328.90625 C6.8891658 326.82686979 6.62736243 324.89170244 5.71875 321.26953125 C5.3990625 320.00367188 5.079375 318.7378125 4.75 317.43359375 C4.44453821 316.10884739 4.14241218 314.78332712 3.84375 313.45703125 C3.5653125 312.24789063 3.286875 311.03875 3 309.79296875 C-0.19427227 294.87571724 -1.66596466 279.69219427 -2.15625 264.45703125 C-2.18493164 263.60206055 -2.21361328 262.74708984 -2.24316406 261.86621094 C-3.12511802 230.30565593 0.00089496 198.58275747 2.46875 167.14453125 C6.34253775 117.7717679 9.35775457 64.18324177 -11.97192383 18.04736328 C-13.93690207 13.66655561 -14.57651715 10.24340707 -14.15625 5.45703125 C-11.01784553 -1.1050872 -6.72011234 -1.6922022 0 0 Z " fill="#FFCC00" transform="translate(639.15625,165.54296875)"/>
<path d="M0 0 C48.95459332 29.43577404 48.95459332 29.43577404 103.65673828 41.62646484 C104.71119141 41.61421875 105.76564453 41.60197266 106.85205078 41.58935547 C109.06044574 41.55394771 111.26878412 41.51483354 113.47705078 41.47216797 C114.52634766 41.46121094 115.57564453 41.45025391 116.65673828 41.43896484 C117.61354492 41.42212646 118.57035156 41.40528809 119.55615234 41.38793945 C121.89111328 41.59912109 121.89111328 41.59912109 123.89111328 43.59912109 C126.54577726 61.04405581 106.43078465 82.35122958 96.89111328 95.59912109 C95.84916711 97.05595248 94.80750195 98.51298488 93.76611328 99.97021484 C87.47291698 108.75256906 81.04926815 117.43013067 74.55249023 126.06274414 C68.49549446 134.11253122 62.50228195 142.20751877 56.55126953 150.3359375 C54.98307112 152.47376093 53.40641195 154.60509817 51.82861328 156.73583984 C36.55586261 177.4853436 21.25978653 199.10179534 9.58251953 222.11474609 C6.01794492 229.12936783 3.00406799 235.06003004 -2.90576172 240.38818359 C-14.65201081 252.17608605 -22.26949611 268.32431785 -30.40478516 282.62060547 C-35.66831346 291.82046869 -41.0651147 300.68898454 -47.85888672 308.84912109 C-48.29491211 309.37481689 -48.7309375 309.9005127 -49.18017578 310.44213867 C-52.13089382 313.84418905 -55.2048283 316.35908757 -59.10888672 318.59912109 C-60.09888672 318.59912109 -61.08888672 318.59912109 -62.10888672 318.59912109 C-63.02907826 313.26504158 -63.93276071 307.9284341 -64.82495117 302.58959961 C-65.1264039 300.79727505 -65.43139841 299.00554028 -65.7409668 297.21459961 C-71.93581996 261.31331249 -74.9215712 224.92907506 -78.0527668 188.66214371 C-85.55889746 84.66843215 -85.55889746 84.66843215 -109.50756836 -16.46777344 C-111.27181637 -21.83660841 -111.27181637 -21.83660841 -110.41748047 -24.79541016 C-86.30648687 -54.37636051 -22.87582615 -12.70251746 0 0 Z " fill="#FFCC00" transform="translate(876.10888671875,2079.40087890625)"/>
<path d="M0 0 C15.49249106 8.77504377 28.72531905 22.83569116 39.65234375 36.7734375 C42.23828535 40.03742889 44.95723027 43.16928452 47.6875 46.3125 C51.67574298 50.92410271 55.51938774 55.61544905 59.25 60.4375 C65.14985648 68.04487203 71.41784056 75.30600813 77.8125 82.5 C78.286875 83.03367187 78.76125 83.56734375 79.25 84.1171875 C82.38574267 87.62708128 85.5804972 91.07853115 88.8125 94.5 C89.31217285 95.03367187 89.8118457 95.56734375 90.32666016 96.1171875 C104.99893812 111.68963325 119.5046146 120.6264968 140.44311523 125.62841797 C151.33563903 128.27284571 163.90008712 131.99827708 170.9375 141.3125 C172.44872792 146.81768743 171.85952062 151.40595875 169.3125 156.5 C157.05395065 171.21025922 141.31001037 180.28040367 124.8125 189.5 C124.09642578 189.90154297 123.38035156 190.30308594 122.64257812 190.71679688 C116.31826079 194.25912187 109.97391918 197.76508663 103.61914062 201.25244141 C86.86550925 210.44795438 70.57731224 219.53487013 55.609375 231.49609375 C29.23827351 252.48576402 0.20815808 269.76200741 -28.82324219 286.76611328 C-60.7900675 305.49043452 -92.64141047 324.53848183 -120.1875 349.5 C-121.1875 346.5 -121.1875 346.5 -120.49755859 344.69189453 C-119.92255615 343.67264893 -119.92255615 343.67264893 -119.3359375 342.6328125 C-118.9035376 341.84535645 -118.4711377 341.05790039 -118.02563477 340.24658203 C-117.54280029 339.38145996 -117.05996582 338.51633789 -116.5625 337.625 C-75.75028466 261.93592802 -55.51610048 175.17651173 -39.3203125 47.24609375 C-39.22079285 46.00533836 -39.22079285 46.00533836 -39.1192627 44.73951721 C-38.81069191 40.8289927 -38.52131574 36.91829596 -38.26269531 33.00415039 C-37.36614411 20.11814975 -34.91155077 10.07126734 -25.41015625 0.7578125 C-17.82144342 -4.92168928 -8.18197463 -3.84352734 0 0 Z " fill="#FFCC00" transform="translate(478.1875,1803.5)"/>
<path d="M0 0 C9.75172517 8.05577297 18.24900032 17.01662176 26 27 C26.495 27.62970703 26.99 28.25941406 27.5 28.90820312 C44.67086676 50.84646198 59.94283175 74.44373931 74.34814453 98.27197266 C76.21046985 101.34758943 78.08731007 104.41411346 79.96484375 107.48046875 C87.35130133 119.56126481 94.6167652 131.70546457 101.75 143.9375 C108.63908531 155.74909128 115.72171455 167.42366115 123 179 C124.03917995 180.66138487 125.07824228 182.32284332 126.1171875 183.984375 C129.05450364 188.67145319 132.01754306 193.34152856 135 198 C135.67506592 199.05670898 135.67506592 199.05670898 136.36376953 200.13476562 C140.81138327 207.0638174 145.32617556 213.59180086 150.93359375 219.65234375 C162.48409352 232.77493423 172.64679666 248.99301706 171.9375 267 C170.70688185 277.79901998 165.25530672 285.20078624 157 292 C129.53068251 312.41795531 91.03996499 316.90713001 58.50402832 324.11022949 C28.79520127 330.47443536 28.79520127 330.47443536 0 340 C-3.00408496 340.36635182 -4.48776612 340.27508857 -7.16210938 338.83886719 C-9 337 -9 337 -9.22460938 334.39941406 C-9.09892578 333.36526367 -8.97324219 332.33111328 -8.84375 331.265625 C-8.71613281 330.10095703 -8.58851563 328.93628906 -8.45703125 327.73632812 C-8.30621094 326.50333984 -8.15539062 325.27035156 -8 324 C-7.75540463 321.53695091 -7.51591807 319.07338973 -7.28125 316.609375 C-6.89600401 312.71800137 -6.50798153 308.82712843 -6.10546875 304.9375 C-4.09389796 284.37477635 -3.79827329 263.71019789 -3.8125 243.0625 C-3.81141235 241.38704102 -3.81141235 241.38704102 -3.81030273 239.67773438 C-3.81151518 222.26695794 -4.24064656 204.89311686 -4.85888672 187.49447632 C-5.85636203 159.25906525 -6.25460406 131.04285092 -6.30505371 102.78964233 C-6.31236099 99.80674519 -6.32555835 96.82393185 -6.34057617 93.84106445 C-6.71652133 13.43304265 -6.71652133 13.43304265 0 0 Z " fill="#FFCC00" transform="translate(919,15)"/>
<path d="M0 0 C3.84628166 1.59810294 6.38182145 4.07962952 9.375 6.9375 C15.34205168 12.52643601 21.62960579 17.55766959 28.11181641 22.53125 C30.00702782 24.00546669 31.87052634 25.51285101 33.73046875 27.03125 C92.42556292 74.49452242 163.03252527 108.67649397 231.53198242 139.45214844 C232.42496033 139.853918 233.31793823 140.25568756 234.23797607 140.66963196 C235.91712225 141.42484202 237.59688796 142.17867681 239.27740479 142.93083191 C244.25031782 145.16805504 249.13752285 147.53152827 254 150 C252.44579112 153.10841776 249.39901441 153.61480429 246.30078125 154.80078125 C245.6073613 155.07306046 244.91394135 155.34533966 244.19950867 155.62586975 C242.69565636 156.21628351 241.19070813 156.80391161 239.68481445 157.38909912 C235.65358955 158.95821514 231.6332888 160.55474916 227.61328125 162.15234375 C226.79610626 162.47692566 225.97893127 162.80150757 225.13699341 163.13592529 C193.93245331 175.57298192 163.49521352 189.9929261 133.14770508 204.36749268 C97.46755134 221.26723627 61.72654999 238.10740344 25.14593506 252.9871521 C23.60833904 253.61337529 22.07220212 254.2431949 20.53765869 254.87686157 C18.41151056 255.75224621 16.27935184 256.61086445 14.14453125 257.46484375 C12.93128174 257.955896 11.71803223 258.44694824 10.46801758 258.95288086 C6.7871964 260.06425305 3.82020064 260.076148 0 260 C-1.12932887 250.09606078 -2.25128115 240.19131252 -3.36492634 230.28559685 C-3.88278151 225.68122398 -4.40276704 221.07711716 -4.9284668 216.47363281 C-22.44477591 62.97287537 -22.44477591 62.97287537 -1 1 C-0.67 0.67 -0.34 0.34 0 0 Z " fill="#FFCC00" transform="translate(2095,1076)"/>
<path d="M0 0 C8.63247791 9.04683685 7.88965503 21.66860451 7.73193359 33.24511719 C7.55187064 40.38990793 6.7611762 47.35766039 5.765625 54.4296875 C5.58883209 55.71860901 5.41203918 57.00753052 5.22988892 58.33551025 C3.12204786 73.52796148 0.55786584 88.64785829 -1.99536133 103.77056885 C-11.42404587 155.42136344 -11.42404587 155.42136344 -3.53515625 206.53515625 C-3.07109375 208.16904297 -3.07109375 208.16904297 -2.59765625 209.8359375 C-2.24703125 210.72667969 -1.89640625 211.61742187 -1.53515625 212.53515625 C-0.54515625 212.86515625 0.44484375 213.19515625 1.46484375 213.53515625 C-0.56709766 220.21153518 -5.86870765 222.96185489 -11.53515625 226.53515625 C-18.06059292 229.98516053 -24.05354034 232.20315767 -31.53515625 231.53515625 C-33.97265625 229.72265625 -33.97265625 229.72265625 -35.53515625 227.53515625 C-35.53515625 226.54515625 -35.53515625 225.55515625 -35.53515625 224.53515625 C-36.41606934 224.26759521 -37.29698242 224.00003418 -38.20458984 223.72436523 C-41.3869981 222.58805746 -43.95046933 221.26843806 -46.82421875 219.5078125 C-47.83218506 218.89139893 -48.84015137 218.27498535 -49.87866211 217.63989258 C-50.96155518 216.96595459 -52.04444824 216.2920166 -53.16015625 215.59765625 C-53.72993195 215.2448056 -54.29970764 214.89195496 -54.88674927 214.52841187 C-67.25647098 206.85912889 -79.27324387 198.68282961 -91.27490234 190.45410156 C-126.11977177 166.24285036 -126.11977177 166.24285036 -162.53515625 144.53515625 C-163.47053223 144.01759766 -164.4059082 143.50003906 -165.36962891 142.96679688 C-196.59259911 125.72512306 -229.18095751 115.66252815 -264.53515625 111.53515625 C-264.11799032 106.64080103 -263.73550287 103.86069402 -259.97265625 100.59765625 C-240.21036671 84.52143639 -211.85603882 78.96922335 -187.86758423 72.0697937 C-180.30264849 69.89263762 -172.7486261 67.67802174 -165.1953125 65.4609375 C-164.08892583 65.13629107 -164.08892583 65.13629107 -162.96018791 64.80508614 C-127.41401962 54.36483241 -92.53040223 43.72495106 -62.78515625 20.890625 C-48.72407994 10.4474208 -17.80965097 -12.14888171 0 0 Z " fill="#FFCC00" transform="translate(264.53515625,1109.46484375)"/>
<path d="M0 0 C3.49666786 3.85839212 3.56662462 7.92630861 3.40625 12.91796875 C1.03063293 30.94067905 -12.85705633 47.35912421 -22.85693359 61.87988281 C-57.751151 108.95134438 -57.751151 108.95134438 -66.36328125 164.45703125 C-65.02094786 170.36104003 -65.02094786 170.36104003 -63.25 176.14453125 C-63 178 -63 178 -63.99609375 179.921875 C-64.47175781 180.52515625 -64.94742187 181.1284375 -65.4375 181.75 C-65.91058594 182.36359375 -66.38367188 182.9771875 -66.87109375 183.609375 C-67.24363281 184.06828125 -67.61617188 184.5271875 -68 185 C-72.38345531 183.49780464 -75.91316331 181.14563883 -79.625 178.4375 C-80.55131226 177.76714722 -80.55131226 177.76714722 -81.49633789 177.08325195 C-90.48925285 170.51771557 -98.86069054 163.26348053 -107.23754883 155.94262695 C-111.99801165 151.80709905 -116.88750818 147.87889524 -121.87475586 144.02172852 C-125.80435765 140.972623 -129.60797991 137.80951131 -133.375 134.5625 C-140.03632829 128.84300213 -147.04922033 123.63899537 -154.10253906 118.41699219 C-156.88943769 116.33578276 -159.6301562 114.19891495 -162.375 112.0625 C-175.56305069 101.89025818 -189.21050562 92.33519264 -203 83 C-203.59280762 82.59749023 -204.18561523 82.19498047 -204.79638672 81.78027344 C-245.28779957 54.33721557 -288.18667871 28.95413026 -333.22680664 9.66235352 C-338.89802052 7.20395895 -338.89802052 7.20395895 -340 5 C-308.85516986 -3.2484025 -275.74229404 -2.28433707 -243.78769493 -2.13692474 C-238.7624921 -2.11656966 -233.73727141 -2.10986509 -228.71203613 -2.10205078 C-214.90095115 -2.07822685 -201.08994615 -2.03421339 -187.27891541 -1.98959351 C-174.61546696 -1.94886363 -161.95204705 -1.91280695 -149.28854609 -1.89316368 C-144.32461749 -1.884979 -139.36078004 -1.87269456 -134.39689636 -1.84967041 C-106.30832964 -1.72071943 -78.19260001 -1.91347049 -50.25 -5.125 C-13.870285 -9.1140893 -13.870285 -9.1140893 0 0 Z " fill="#FFCC00" transform="translate(387,835)"/>
<path d="M0 0 C25.38227616 5.04761174 46.87065809 20.49677029 67 36 C67.63631348 36.48855469 68.27262695 36.97710938 68.92822266 37.48046875 C76.4045805 43.24051137 83.72181465 49.1955281 91.03540039 55.15991211 C97.06818837 60.07381522 103.17583671 64.88664415 109.30859375 69.67480469 C110.97121699 70.97744888 112.62722977 72.28801779 114.28125 73.6015625 C117.83733838 76.42284824 121.41336073 79.217675 125 82 C125.7027002 82.5460791 126.40540039 83.0921582 127.12939453 83.65478516 C157.43255551 107.09089598 192.47346361 132.98188331 231 140 C231 140.66 231 141.32 231 142 C159.22492115 178.25218452 76.86604205 187.68099115 -2.44067383 192.82952881 C-5.1440957 193.0095979 -7.84642656 193.20221289 -10.54882812 193.39697266 C-15.26521419 193.73484334 -19.982759 194.04194924 -24.70254517 194.32827759 C-26.50503562 194.4414524 -28.30699654 194.5634574 -30.10824585 194.69491577 C-47.0840197 195.91581108 -47.0840197 195.91581108 -52.6574707 191.34521484 C-53.10050537 190.90129395 -53.54354004 190.45737305 -54 190 C-55.00160156 189.10474609 -55.00160156 189.10474609 -56.0234375 188.19140625 C-56.69246094 187.38509766 -56.69246094 187.38509766 -57.375 186.5625 C-57.83648438 186.02753906 -58.29796875 185.49257812 -58.7734375 184.94140625 C-63.57182422 177.34650752 -62.8511234 167.93436097 -61.3828125 159.421875 C-54.77828369 132.41928819 -39.48390231 106.93010031 -26.5 82.5625 C-12.42989525 56.0840904 -1.0633674 30.28763708 0 0 Z " fill="#FFCC00" transform="translate(2093,1507)"/>
<path d="M0 0 C0.78375 0.5775 1.5675 1.155 2.375 1.75 C3.179375 2.36875 3.179375 2.36875 4 3 C2.51144745 7.27461348 0.25304355 10.75271225 -2.3125 14.4375 C-21.19701238 42.20494687 -36.63367876 72.5672613 -52.828125 101.94140625 C-96.732751 181.47314124 -96.732751 181.47314124 -128 212 C-132.15203604 210.29214281 -135.28774343 207.35590512 -138.625 204.4375 C-139.24455566 203.9010083 -139.86411133 203.3645166 -140.50244141 202.81176758 C-144.97726293 198.92537293 -149.39709577 194.97977568 -153.7890625 191 C-158.12898035 187.07413791 -162.53746206 183.23300864 -167.01171875 179.4609375 C-180.88296669 167.75352312 -193.89888924 155.19045263 -206.77160645 142.40362549 C-207.90639792 141.27688872 -209.04266439 140.15163517 -210.18054199 139.02801514 C-217.26547842 132.02265228 -223.83723083 124.84941337 -230 117 C-230.92738974 115.85726415 -231.85560278 114.71519521 -232.78515625 113.57421875 C-242.91295789 100.736405 -252.3653306 86.96503995 -252 70 C-250.95478868 64.33532796 -248.47812873 60.66392351 -244 57 C-236.50068177 52.09659962 -228.61727765 49.98944132 -219.84960938 48.46948242 C-191.86166902 43.56709319 -165.60145614 32.27844396 -139.30421448 21.88301086 C-28.34900718 -21.97048056 -28.34900718 -21.97048056 0 0 Z " fill="#FFCC00" transform="translate(2269,775)"/>
<path d="M0 0 C4.03687256 1.25486361 7.64801691 2.76369955 11.375 4.75 C56.44115968 27.44835915 109.64730468 26.05402678 158.8125 24.5 C172.88289738 24.05580626 186.9485309 23.86118542 201.02597046 23.82275391 C203.2180618 23.81604226 205.41014601 23.80592199 207.60220337 23.79199219 C226.09025796 23.68339338 244.57860532 24.29036919 262.75 28 C263.63558594 28.165 264.52117187 28.33 265.43359375 28.5 C271.7352381 29.7352381 271.7352381 29.7352381 274 32 C272.97261719 32.4846875 271.94523437 32.969375 270.88671875 33.46875 C258.00434826 39.65422128 247.40472129 47.15449012 237 57 C236.24976563 57.69738281 235.49953125 58.39476562 234.7265625 59.11328125 C212.99437773 79.96855331 198.81937913 108.65662609 185 135 C160.71263084 181.29811812 160.71263084 181.29811812 144 201 C143.04867187 202.15242188 143.04867187 202.15242188 142.078125 203.328125 C133.02657755 213.9727448 121.45184903 222.82528823 108 227 C106.68 227 105.36 227 104 227 C103.68474365 226.24307861 103.3694873 225.48615723 103.04467773 224.70629883 C92.21361332 198.84968246 79.91503822 174.21494332 65.59765625 150.08984375 C61.29931498 142.84684803 57.14116113 135.52519203 52.97875977 128.20367432 C49.52184168 122.1255152 46.0523088 116.05793301 42.47265625 110.05078125 C-0.38852588 38.07553602 -0.38852588 38.07553602 -0.0625 6.125 C-0.05347656 4.97257812 -0.04445313 3.82015625 -0.03515625 2.6328125 C-0.02355469 1.76398438 -0.01195312 0.89515625 0 0 Z " fill="#FFCC00" transform="translate(305,492)"/>
<path d="M0 0 C0.33 0.66 0.66 1.32 1 2 C0.05640625 3.34578125 0.05640625 3.34578125 -0.90625 4.71875 C-27.51833786 43.25660847 -35.53974853 90.07373056 -45.05404663 135.0531311 C-64.82693566 228.44935625 -64.82693566 228.44935625 -93 249 C-93.99 249 -94.98 249 -96 249 C-97.4375 247.015625 -97.4375 247.015625 -99 244.25 C-103.21792593 237.32690639 -108.38919827 231.79358988 -114 226 C-114.76570313 225.19433594 -115.53140625 224.38867188 -116.3203125 223.55859375 C-121.83195265 217.87903625 -127.78762547 212.88927018 -134 208 C-134.64614258 207.48808105 -135.29228516 206.97616211 -135.95800781 206.44873047 C-145.60856759 198.81260792 -155.42051343 191.44881955 -165.42578125 184.28515625 C-172.58235823 179.1592291 -179.656561 173.92126869 -186.72900391 168.68017578 C-188.90278428 167.07192417 -191.08185383 165.47108312 -193.26171875 163.87109375 C-235.88453263 132.44661725 -235.88453263 132.44661725 -239 115 C-239.17968604 109.5777095 -238.11719932 106.59518413 -234.44311523 102.4206543 C-222.00729057 90.17838333 -198.75481803 89.01747508 -182.5625 87.4375 C-165.98351522 85.81827619 -152.55432083 82.09298557 -138 74 C-137.0723584 73.48759766 -137.0723584 73.48759766 -136.12597656 72.96484375 C-120.68084791 64.32673884 -106.66745197 53.47241125 -92.85302734 42.47167969 C-21.9635829 -13.82892257 -21.9635829 -13.82892257 0 0 Z " fill="#FFCC00" transform="translate(1792,216)"/>
<path d="M0 0 C1.62615234 0.01522705 1.62615234 0.01522705 3.28515625 0.03076172 C15.22050043 0.26180305 26.88102729 1.37368113 36.375 9.375 C39.85909987 13.14772352 42.26207632 16.41765615 42.5625 21.625 C41.375 25.375 41.375 25.375 40.34765625 27.85546875 C37.49748183 34.74870209 35.51780396 41.43670018 34.01171875 48.734375 C33.69164101 50.28054756 33.69164101 50.28054756 33.36509705 51.85795593 C30.14051014 67.98281308 28.08197365 84.32148474 25.82543945 100.60375977 C15.38564945 175.74734753 15.38564945 175.74734753 -5.625 194.375 C-14.3624523 199.88339384 -23.37104848 202.15162048 -33.625 200.375 C-37.05798133 197.73229982 -38.58672078 194.14003105 -40.625 190.375 C-42.49531147 187.55600045 -44.46650603 184.81171157 -46.4375 182.0625 C-46.95795898 181.32596191 -47.47841797 180.58942383 -48.01464844 179.83056641 C-59.78204759 163.19604225 -72.81100627 147.50172627 -86.13671875 132.1015625 C-87.65090292 130.34494989 -89.15493277 128.58011772 -90.65625 126.8125 C-95.88639221 120.66132117 -101.19680423 114.61866687 -106.69165039 108.70263672 C-110.4195753 104.66287274 -113.86809802 100.43714961 -117.3125 96.15625 C-119.82473901 93.13477336 -122.44940062 90.25098077 -125.125 87.375 C-129.30078475 82.87628981 -133.27084118 78.26036958 -137.1171875 73.4765625 C-139.04019646 71.0982617 -140.9819931 68.74311313 -142.9453125 66.3984375 C-152.63629017 54.80392218 -161.39982048 42.87986955 -169.6875 30.25 C-170.16533936 29.52683594 -170.64317871 28.80367187 -171.13549805 28.05859375 C-171.57676025 27.37667969 -172.01802246 26.69476562 -172.47265625 25.9921875 C-172.86461182 25.39003418 -173.25656738 24.78788086 -173.66040039 24.16748047 C-174.68957267 22.25500695 -175.18817516 20.49521996 -175.625 18.375 C-174.90441406 18.519375 -174.18382812 18.66375 -173.44140625 18.8125 C-156.69471912 21.70748553 -139.73837274 21.06529778 -122.9609375 18.76171875 C-121.67790741 18.58778091 -120.39487732 18.41384308 -119.07296753 18.2346344 C-103.19304435 16.02579089 -87.47884838 12.89303979 -71.75 9.8125 C-20.14252735 -0.28709041 -20.14252735 -0.28709041 0 0 Z " fill="#FFCC00" transform="translate(1978.625,495.625)"/>
<path d="M0 0 C-0.33 1.32 -0.66 2.64 -1 4 C-2.98 4 -4.96 4 -7 4 C-7 3.34 -7 2.68 -7 2 C-4 0 -4 0 0 0 Z " fill="#FFCE00" transform="translate(766,433)"/>
<path d="M0 0 C2.475 0.99 2.475 0.99 5 2 C4.01 2.66 3.02 3.32 2 4 C1.01 3.67 0.02 3.34 -1 3 C-0.67 2.01 -0.34 1.02 0 0 Z " fill="#FFCE00" transform="translate(776,426)"/>
</svg>
