<svg version="1.1" id="Layer_1" xmlns="http://www.w3.org/2000/svg" xmlns:xlink="http://www.w3.org/1999/xlink" x="0px" y="0px"
	 width="100%" viewBox="0 0 1920 1080" enable-background="new 0 0 1920 1080" xml:space="preserve">
<path fill="#000000" opacity="1.000000" stroke="none" 
	d="
M1221.000000,1081.000000 
	C814.000061,1081.000000 407.500153,1081.000000 1.000164,1081.000000 
	C1.000109,721.000122 1.000109,361.000275 1.000055,1.000309 
	C640.999756,1.000206 1280.999512,1.000206 1920.999512,1.000103 
	C1920.999634,360.999664 1920.999634,720.999329 1920.999756,1080.999512 
	C1687.833374,1081.000000 1454.666626,1081.000000 1221.000000,1081.000000 
M146.351395,487.274261 
	C144.568039,481.240753 143.182922,475.054443 140.936523,469.198547 
	C126.626549,431.895325 112.126755,394.664948 97.398834,356.660583 
	C85.225540,359.319946 73.148170,361.958344 60.279957,364.769501 
	C63.990643,370.221558 67.169014,374.847656 70.301498,379.504608 
	C74.658073,385.981384 79.256721,392.315369 83.268829,399.000336 
	C99.761330,426.480072 115.918877,454.137878 128.735184,483.614502 
	C132.719711,492.778625 133.113266,492.446320 142.955231,490.702606 
	C145.493713,490.252808 146.501297,488.962555 147.092987,487.120148 
	C147.092987,487.120148 147.133698,486.874695 147.133698,486.874695 
	C147.133698,486.874695 147.222458,487.139313 146.351395,487.274261 
M1510.724121,270.461151 
	C1517.215454,270.355774 1523.728394,270.551239 1530.193604,270.084686 
	C1545.350098,268.990967 1557.561646,256.445648 1557.722778,242.178436 
	C1557.889648,227.393005 1546.677124,214.775665 1531.514526,213.082214 
	C1528.189087,212.710815 1526.721680,211.655533 1525.884033,208.284195 
	C1522.237427,193.606323 1510.169067,182.890915 1495.190796,181.685303 
	C1489.057129,181.191589 1482.772705,182.572647 1476.199951,183.131165 
	C1457.444580,154.048523 1421.161133,158.849213 1405.986206,179.837265 
	C1403.925537,179.468430 1401.872437,179.049637 1399.802979,178.738510 
	C1380.003540,175.761902 1359.786621,189.538971 1355.134399,209.482941 
	C1354.022461,214.249557 1353.993652,219.268829 1353.447632,224.349136 
	C1351.614746,224.886566 1349.687744,225.365387 1347.819092,226.012756 
	C1329.410889,232.390030 1321.108765,253.910980 1331.112305,269.940277 
	C1337.928101,280.861755 1348.409302,285.556519 1360.969849,286.926971 
	C1360.944458,293.164246 1363.551270,296.700958 1368.498657,297.141449 
	C1373.311157,297.569916 1376.860840,294.503143 1377.871826,288.988739 
	C1378.049072,288.022095 1378.046509,287.022491 1379.047729,286.005310 
	C1386.002563,286.040527 1392.957520,286.075745 1399.826660,286.789429 
	C1399.484009,292.613403 1401.987183,296.385742 1406.668213,297.099701 
	C1411.443481,297.828003 1415.148682,294.960510 1416.486206,289.446655 
	C1416.758057,288.325562 1416.866333,287.164764 1417.980591,286.002869 
	C1424.974121,286.034607 1431.967773,286.066345 1438.885376,286.832092 
	C1437.718628,292.595154 1440.082764,296.953491 1444.955444,298.022644 
	C1449.839966,299.094360 1453.973755,296.054718 1455.226074,290.425995 
	C1455.549683,288.971069 1455.749634,287.488586 1456.942627,286.002686 
	C1463.441162,286.002167 1469.955933,285.707336 1476.435059,286.061523 
	C1490.522461,286.831512 1501.887207,282.227173 1510.724121,270.461151 
M216.017792,260.686218 
	C215.843018,261.425293 215.668243,262.164368 215.091690,263.609833 
	C213.849136,275.824738 219.695602,284.123627 229.682739,290.201660 
	C239.545013,296.203674 250.358521,297.501495 261.613922,297.091248 
	C263.319611,297.029083 265.816833,297.608582 266.682495,298.806030 
	C276.260590,312.055817 290.160675,316.684875 305.412598,317.867798 
	C321.620239,319.124817 337.000824,316.069366 350.168335,305.850281 
	C372.496796,325.496246 403.553192,321.517059 419.510681,297.370667 
	C423.287811,298.164276 426.948120,299.304169 430.682404,299.653717 
	C446.800568,301.162628 461.842865,298.237640 474.004181,286.817871 
	C481.295349,279.971375 485.516815,271.520477 482.957306,260.214935 
	C482.543640,258.472778 482.129974,256.730591 481.612579,254.309723 
	C469.168091,231.259521 448.039703,229.068176 425.169647,230.867447 
	C419.551727,219.102463 410.264221,211.783676 397.664246,208.605576 
	C385.423889,205.518158 373.502563,206.285141 361.990112,212.034302 
	C356.423645,200.103180 348.977142,190.288315 334.716400,190.665894 
	C319.901855,191.058121 312.501312,201.381119 307.601776,213.946564 
	C299.802460,210.729553 293.811310,209.941208 285.697021,211.024612 
	C272.843628,212.740784 261.221405,223.049545 258.290985,235.278732 
	C258.188385,235.842773 258.085785,236.406830 257.100769,237.017303 
	C253.976501,237.350571 250.804138,237.443848 247.736237,238.058472 
	C234.103348,240.789642 222.292892,246.231308 216.017792,260.686218 
M157.049728,112.621964 
	C158.753525,89.579987 146.653564,75.782158 123.732307,74.629410 
	C100.106712,73.441246 82.569168,94.610008 88.567017,117.075844 
	C92.836136,133.066483 107.644516,143.575378 125.042686,142.961121 
	C141.649231,142.374817 153.403702,131.520935 157.049728,112.621964 
M1743.614502,409.209717 
	C1750.954956,391.183197 1758.295288,373.156677 1765.995483,354.246704 
	C1754.858765,353.376831 1744.329590,352.554413 1734.006348,351.748077 
	C1722.006226,396.108704 1702.139038,437.641052 1701.410645,484.335693 
	C1707.295654,484.718292 1713.203125,485.102356 1718.040894,485.416901 
	C1726.587280,459.795135 1734.912354,434.836945 1743.614502,409.209717 
M167.821899,465.924133 
	C169.415894,472.479218 171.009872,479.034302 172.614166,485.631775 
	C179.343857,485.122955 185.212814,484.679230 191.756393,484.184479 
	C189.920685,470.847473 189.499130,457.989258 186.224762,445.903992 
	C177.727570,414.541931 167.975418,383.519897 158.515106,351.658081 
	C147.866714,352.554108 137.260010,353.446594 126.194878,354.377686 
	C141.429932,391.723053 158.052078,427.111328 167.821899,465.924133 
M1780.897095,394.235199 
	C1767.041870,425.244263 1754.780518,456.834412 1745.036011,489.654846 
	C1749.470703,490.527466 1752.864990,491.516083 1756.306274,491.722443 
	C1757.782349,491.810944 1760.108887,490.664307 1760.760864,489.409546 
	C1764.433105,482.342407 1767.777466,475.101074 1771.115845,467.864868 
	C1785.706665,436.238770 1803.750000,406.614258 1823.208130,377.805389 
	C1825.962402,373.727356 1828.673340,369.619934 1831.938354,364.725250 
	C1818.967285,361.905609 1806.899292,359.282257 1794.837769,356.660309 
	C1790.016846,369.576385 1785.554321,381.531982 1780.897095,394.235199 
M72.653893,469.883698 
	C81.202415,480.288269 89.750946,490.692841 98.428322,501.254242 
	C102.422653,499.268311 106.023582,497.477997 109.683144,495.658539 
	C108.847137,493.906433 108.365433,492.655396 107.690948,491.518707 
	C91.459885,464.165619 75.285820,436.778168 58.919067,409.506378 
	C53.021347,399.679077 46.721558,390.089020 40.415630,380.515594 
	C39.553356,379.206512 37.076462,377.491150 36.210262,377.881104 
	C27.240892,381.919220 18.448793,386.351074 9.368999,390.790039 
	C30.823526,417.618896 51.505512,443.481689 72.653893,469.883698 
M1857.641724,422.163757 
	C1865.924194,412.018463 1874.206543,401.873138 1883.064819,391.022400 
	C1873.173828,385.970093 1863.955322,381.261261 1854.543945,376.453979 
	C1829.625000,416.202606 1803.832031,454.322357 1782.600586,495.698456 
	C1786.293823,497.518555 1789.824341,499.258423 1794.211304,501.420349 
	C1815.184814,475.192719 1836.176025,448.943085 1857.641724,422.163757 
M1791.735840,48.615299 
	C1799.120361,37.759014 1811.140991,34.761211 1822.243286,41.007118 
	C1835.589233,48.515259 1840.173584,67.427040 1831.547974,80.191368 
	C1830.621704,81.562164 1828.454102,82.251099 1826.726562,82.888390 
	C1823.844727,83.951385 1820.852905,84.716911 1817.907471,85.607712 
	C1818.097046,86.166069 1818.286621,86.724426 1818.476318,87.282784 
	C1820.130005,86.752922 1821.764038,86.148582 1823.440674,85.705925 
	C1831.210571,83.654587 1838.365845,84.686890 1844.287231,90.463669 
	C1849.523071,95.571320 1850.971313,101.828766 1848.920654,108.821060 
	C1847.286743,114.392494 1842.146851,118.508896 1836.537476,118.950966 
	C1830.674194,119.413040 1825.359375,117.075500 1824.016602,112.046013 
	C1823.132568,108.734467 1823.470215,104.318352 1825.074463,101.390663 
	C1826.170898,99.389793 1830.562378,97.992630 1833.167236,98.388390 
	C1835.378052,98.724281 1838.009521,101.694145 1838.887085,104.076050 
	C1840.060791,107.262177 1838.031738,109.751465 1834.446655,110.538651 
	C1833.675049,110.708092 1833.016235,111.390732 1831.784668,112.163948 
	C1837.748413,112.664383 1840.728516,110.494125 1841.173340,105.955231 
	C1841.684448,100.741905 1838.137207,96.429314 1832.949097,95.956718 
	C1827.255615,95.438087 1822.176147,99.034401 1821.029053,104.396095 
	C1819.616699,110.998062 1823.006714,117.851273 1828.942993,119.941330 
	C1835.043213,122.089119 1840.784302,121.327217 1845.811279,117.044365 
	C1850.983521,112.637665 1852.707153,106.837631 1851.506104,100.386749 
	C1849.626953,90.293983 1843.044067,84.624321 1832.909180,82.627151 
	C1833.813843,80.791344 1834.592407,79.337379 1835.261597,77.834709 
	C1844.144775,57.884995 1829.921875,35.065475 1809.156982,35.935055 
	C1799.772827,36.328041 1791.191162,42.615509 1788.257690,51.247211 
	C1785.643311,58.939762 1788.055054,67.449356 1794.413330,72.966873 
	C1801.180176,78.839005 1812.109253,77.763153 1817.570557,70.687256 
	C1822.323364,64.529022 1820.763916,55.186481 1814.356567,51.432026 
	C1809.431152,48.545975 1803.955811,49.748913 1800.889648,55.043568 
	C1802.125122,54.384457 1802.785767,54.052990 1803.426514,53.686974 
	C1810.363647,49.724342 1817.563965,53.504902 1818.207397,61.451469 
	C1818.882812,69.791771 1810.000732,76.651642 1801.595459,74.281357 
	C1791.116211,71.326218 1786.859619,60.991383 1791.735840,48.615299 
M1856.500977,150.283249 
	C1842.444092,150.537704 1830.423096,144.206223 1818.247437,138.149597 
	C1818.409180,139.092651 1818.699097,139.712067 1819.185547,140.038834 
	C1828.579224,146.349457 1838.851929,150.588211 1850.080200,151.969498 
	C1861.276367,153.346848 1872.104492,152.371460 1880.948730,144.148132 
	C1887.511963,138.045700 1888.798950,130.409836 1886.567627,122.158134 
	C1884.746948,115.425880 1877.364258,110.009949 1870.153931,109.428032 
	C1862.607178,108.818954 1855.923950,113.443146 1853.894531,120.678268 
	C1852.030151,127.324463 1854.539062,133.261505 1860.470947,136.239716 
	C1864.737793,138.382004 1870.189331,137.472519 1873.298096,133.950912 
	C1876.221436,130.639465 1877.046021,126.858749 1874.777466,122.905426 
	C1872.799683,119.458611 1869.522217,118.202057 1865.786255,119.303711 
	C1862.896973,120.155716 1860.647827,121.976540 1861.405396,126.023331 
	C1862.098999,125.454651 1862.629639,125.236191 1862.777222,124.865372 
	C1864.338501,120.940933 1867.161499,119.861916 1870.746826,121.792679 
	C1874.556152,123.844109 1874.694336,127.259308 1873.083618,130.850510 
	C1871.512085,134.353745 1868.560913,135.567429 1864.913574,135.259842 
	C1860.509277,134.888397 1857.455811,132.613922 1856.011230,128.412186 
	C1854.207642,123.166122 1856.331543,117.334610 1861.159058,113.963867 
	C1865.806519,110.718781 1873.479980,111.086739 1878.526611,114.796715 
	C1888.109619,121.841682 1887.847412,135.965210 1878.062500,144.159225 
	C1872.046509,149.197128 1864.860840,150.047485 1856.500977,150.283249 
M1692.539795,128.113403 
	C1685.636963,124.931427 1678.734131,121.749443 1671.831421,118.567459 
	C1675.595459,122.063606 1679.754517,125.031738 1684.343628,126.994896 
	C1700.422852,133.873398 1717.450195,136.752533 1734.785522,137.965500 
	C1757.264160,139.538376 1779.718384,139.063400 1802.034058,135.921890 
	C1812.875366,134.395706 1823.620605,132.109390 1834.338013,129.831421 
	C1837.448120,129.170395 1840.311279,127.347366 1843.287598,126.057014 
	C1837.299316,126.617706 1831.901489,128.691330 1826.314697,129.870667 
	C1798.982544,135.640366 1771.338867,137.603271 1743.439087,136.137024 
	C1726.452759,135.244339 1709.621704,133.439606 1692.539795,128.113403 
M1766.456421,102.136269 
	C1731.572754,110.788612 1696.559082,114.684891 1660.982788,105.391479 
	C1666.924194,107.895164 1672.958740,110.052086 1679.172852,110.913002 
	C1705.712158,114.589752 1732.047974,112.215652 1758.043335,106.545273 
	C1774.017090,103.060905 1789.411011,97.591904 1802.792114,87.693413 
	C1804.139038,86.697166 1805.160278,85.260704 1806.332520,84.028526 
	C1806.023926,83.694618 1805.715210,83.360703 1805.406494,83.026794 
	C1794.165283,92.391716 1780.954102,97.689011 1766.456421,102.136269 
M1381.061401,319.725006 
	C1379.246460,326.369324 1381.385742,330.957642 1386.937012,332.327179 
	C1391.978638,333.570984 1396.064087,330.080475 1397.325562,323.623413 
	C1398.776855,316.195343 1396.750854,309.282379 1394.821289,302.339111 
	C1394.316650,302.095001 1393.812012,301.850891 1393.307373,301.606812 
	C1389.303589,307.398865 1385.299683,313.190948 1381.061401,319.725006 
M1421.431396,316.084534 
	C1420.904785,317.301483 1420.340332,318.503632 1419.859009,319.738251 
	C1418.426392,323.412109 1418.110718,327.356842 1421.522095,329.727600 
	C1423.811890,331.319031 1427.319702,332.214417 1430.068481,331.841980 
	C1434.194458,331.282928 1435.463257,327.523376 1436.069702,323.661102 
	C1437.228516,316.280426 1435.693237,309.320892 1433.076904,300.962250 
	C1428.857544,306.389771 1425.339966,310.914551 1421.431396,316.084534 
M1742.639771,101.983109 
	C1745.277344,101.654778 1747.991699,101.618073 1750.539673,100.948738 
	C1763.059448,97.659912 1773.282227,91.370491 1777.493896,78.311058 
	C1780.640137,68.555199 1773.259277,57.435589 1763.137817,56.065369 
	C1756.356812,55.147369 1749.934814,59.708565 1748.316650,66.592056 
	C1746.922974,72.520538 1750.013062,78.222534 1755.656616,80.136063 
	C1760.764526,81.867912 1766.685669,78.777336 1767.904785,73.743034 
	C1768.956421,69.400269 1766.293213,65.122108 1762.014526,64.280899 
	C1757.968750,63.485504 1755.198975,65.950661 1755.541016,68.544174 
	C1758.135986,68.015045 1761.046631,66.509583 1763.310669,67.181709 
	C1766.416748,68.103874 1766.792847,71.483620 1765.448853,74.336266 
	C1763.732422,77.979088 1760.406128,79.340187 1756.723511,78.220909 
	C1754.700439,77.605995 1752.635742,75.904755 1751.415283,74.126678 
	C1748.833862,70.366127 1749.952759,66.411942 1752.308960,62.932659 
	C1754.861938,59.162994 1758.607422,57.575428 1763.134033,58.374088 
	C1772.902954,60.097702 1778.720703,70.392563 1774.912720,79.607956 
	C1770.130493,91.181229 1760.413574,96.424248 1748.846313,98.968147 
	C1745.621582,99.677353 1742.321899,100.046104 1739.056641,100.571030 
	C1739.070679,100.927925 1739.084717,101.284813 1739.098877,101.641708 
	C1739.983032,101.763084 1740.867310,101.884468 1742.639771,101.983109 
M1787.816772,160.383820 
	C1784.139893,167.279083 1785.285278,173.594452 1790.943359,177.622086 
	C1797.095825,182.001556 1805.787354,180.920486 1810.864868,175.144394 
	C1817.538452,167.552521 1816.894043,155.249115 1808.588989,148.798386 
	C1799.376221,141.642395 1788.575684,140.392044 1777.320190,143.160492 
	C1777.024048,143.233353 1776.878906,143.920776 1776.489502,144.645172 
	C1777.348145,144.738373 1777.940308,144.825226 1778.535767,144.863846 
	C1785.742432,145.331390 1793.081299,145.108871 1800.116089,146.464661 
	C1806.012451,147.601059 1810.489746,151.823868 1812.373047,157.865250 
	C1814.354004,164.220245 1813.273438,170.103668 1808.406616,174.898056 
	C1804.715698,178.533875 1799.028809,179.289246 1793.999146,176.944229 
	C1790.069092,175.111877 1787.702271,172.093307 1787.687866,167.592407 
	C1787.675171,163.578903 1789.199341,159.941498 1793.105957,158.965851 
	C1795.594971,158.344238 1799.107910,159.090439 1801.201050,160.576477 
	C1802.594971,161.565948 1803.366577,165.592560 1802.465820,167.072769 
	C1801.476807,168.698120 1798.252686,168.971313 1795.993408,169.809402 
	C1795.497925,169.993240 1794.964233,170.074448 1794.014160,170.310913 
	C1798.722412,173.304474 1802.182617,172.553024 1804.341675,168.542053 
	C1806.573486,164.395935 1804.869141,159.102173 1800.487427,157.151306 
	C1795.845581,155.084625 1791.712524,156.024261 1787.816772,160.383820 
M1766.151855,121.593758 
	C1778.238525,119.232635 1790.422729,117.144989 1800.707153,109.734116 
	C1768.512329,122.741493 1735.203735,124.968178 1701.020386,120.703850 
	C1707.148315,122.418098 1713.333252,124.032623 1719.484985,123.914932 
	C1734.763306,123.622597 1750.026611,122.539909 1766.151855,121.593758 
M55.827435,113.176857 
	C63.846527,112.769630 72.021935,113.353287 80.104141,109.613640 
	C79.034225,108.762207 78.459122,107.908440 77.810356,107.848213 
	C69.274811,107.055817 60.733776,106.288673 52.177704,105.806183 
	C51.358662,105.759987 49.829041,107.570686 49.658981,108.677551 
	C49.027775,112.785851 51.982227,113.135445 55.827435,113.176857 
M126.139603,163.186920 
	C125.422119,159.327026 124.704628,155.467133 123.987144,151.607239 
	C122.239655,152.064606 121.747360,152.431122 121.704758,152.844055 
	C120.809189,161.524048 119.842346,170.201584 119.294922,178.905121 
	C119.239029,179.793777 121.791695,181.642822 123.074661,181.590622 
	C124.304909,181.540588 126.414238,179.647720 126.477631,178.475021 
	C126.735878,173.697937 126.357193,168.886398 126.139603,163.186920 
M100.129173,146.377914 
	C95.010422,153.431259 89.775475,160.406754 84.927353,167.641464 
	C84.353844,168.497284 85.487984,171.636871 86.574600,172.153839 
	C87.722115,172.699768 90.680717,171.865646 91.260002,170.783905 
	C94.915535,163.957672 98.204918,156.929123 101.400612,149.870224 
	C101.833511,148.914001 101.065300,147.414017 100.129173,146.377914 
M193.298752,104.836304 
	C183.793961,104.347008 174.345383,104.291389 165.296158,108.317818 
	C167.044617,109.600372 168.796951,110.650490 170.629745,110.817467 
	C177.227280,111.418533 183.847549,111.928802 190.467834,112.070404 
	C195.561707,112.179359 196.356659,110.355919 193.298752,104.836304 
M90.310249,61.239075 
	C93.417786,65.036385 96.525314,68.833694 99.632851,72.631004 
	C100.168930,72.240234 100.705009,71.849472 101.241089,71.458710 
	C99.623375,61.932034 94.836533,53.744507 89.475746,45.864052 
	C89.075783,45.276100 86.414879,45.358101 85.710777,46.050163 
	C84.674698,47.068520 83.582512,49.306126 84.044594,50.341122 
	C85.647415,53.931221 87.910919,57.226357 90.310249,61.239075 
M160.738770,47.831394 
	C157.046036,43.385246 155.359116,43.217094 152.697922,47.815079 
	C149.724548,52.952393 147.184296,58.356102 144.717224,63.763256 
	C143.683426,66.029037 143.322495,68.601822 142.655670,71.035034 
	C143.215118,71.320404 143.774567,71.605766 144.334030,71.891136 
	C151.533020,65.416351 156.444397,57.198341 160.738770,47.831394 
M121.020500,65.247269 
	C122.033760,64.266846 123.814690,63.372944 123.936508,62.292053 
	C124.767593,54.917976 125.444504,47.510490 125.669128,40.098568 
	C125.710648,38.728634 123.709061,36.494278 122.232491,36.050919 
	C119.320633,35.176601 117.917160,37.358551 118.147774,40.050964 
	C118.849586,48.244732 119.765259,56.420181 121.020500,65.247269 
M155.944489,158.495560 
	C152.614212,153.780762 149.855057,148.527893 144.199341,145.855331 
	C145.174927,155.622147 149.965652,163.632248 155.154449,171.400131 
	C155.611008,172.083633 158.395477,171.985062 159.440155,171.277481 
	C160.413940,170.617920 161.259506,168.361298 160.848175,167.333084 
	C159.695847,164.452545 157.864777,161.843536 155.944489,158.495560 
M186.471054,143.303406 
	C185.527481,141.914810 184.894379,139.983917 183.585007,139.234283 
	C178.698639,136.436783 173.652237,133.893250 168.539688,131.527084 
	C165.965240,130.335587 163.119781,129.729736 159.254395,128.493744 
	C160.179718,130.699783 160.291138,131.888138 160.925369,132.335800 
	C167.819519,137.202011 174.729340,142.057144 181.860870,146.557114 
	C182.511154,146.967438 184.726410,144.897552 186.471054,143.303406 
M78.054398,138.508911 
	C80.719772,136.134216 83.385147,133.759537 86.050522,131.384842 
	C85.739868,130.961212 85.429214,130.537567 85.118561,130.113937 
	C84.011559,130.208145 82.766083,130.004395 81.819679,130.444199 
	C74.914841,133.652985 67.976746,136.819275 61.294193,140.449997 
	C60.119450,141.088242 59.280006,144.076981 59.709049,145.571671 
	C60.593075,148.651367 63.057423,148.081589 65.292412,146.669434 
	C69.361458,144.098434 73.426643,141.521332 78.054398,138.508911 
M183.926880,70.387390 
	C181.239609,71.282005 178.232086,71.680435 175.927505,73.167946 
	C169.952515,77.024529 164.287003,81.360580 158.497955,85.505249 
	C158.823517,86.132942 159.149078,86.760643 159.474640,87.388344 
	C161.144043,87.149963 162.985184,87.284515 164.453033,86.608521 
	C170.744797,83.710960 176.920258,80.561577 183.151123,77.530739 
	C186.513046,75.895416 187.016525,73.724808 183.926880,70.387390 
M81.693184,87.888687 
	C82.749695,87.888687 83.806206,87.888687 86.014381,87.888687 
	C84.269325,85.863235 83.431114,84.401634 82.182320,83.524719 
	C76.503151,79.536758 70.717270,75.700150 64.950775,71.837448 
	C62.706608,70.334190 60.668999,70.208511 59.064693,72.840675 
	C57.329941,75.686859 59.032658,77.231796 61.258125,78.324043 
	C67.773056,81.521523 74.355728,84.580971 81.693184,87.888687 
M1705.659180,497.994568 
	C1703.375488,497.735901 1701.827393,498.119873 1701.964966,501.049988 
	C1702.095093,503.820129 1701.770142,506.611633 1701.647461,509.346924 
	C1713.512817,510.866547 1712.568726,510.070129 1713.980957,497.994568 
	C1711.468628,497.994568 1709.015869,497.994568 1705.659180,497.994568 
M190.234009,501.937164 
	C190.126038,500.684570 190.018082,499.431976 189.919159,498.284424 
	C185.742920,498.284424 181.980499,498.284424 178.202911,498.284424 
	C178.985077,509.754333 180.962570,511.457703 190.956238,509.088562 
	C190.745209,507.042084 190.528137,504.937042 190.234009,501.937164 
M1745.675049,515.191284 
	C1746.618164,514.696472 1748.100464,514.420288 1748.405884,513.666870 
	C1749.438599,511.120056 1750.053955,508.404083 1750.925781,505.421387 
	C1747.079346,504.449310 1743.500122,503.544769 1739.640259,502.569275 
	C1738.483521,506.230988 1737.517334,509.289581 1736.447754,512.675293 
	C1739.595337,513.561646 1742.259644,514.311890 1745.675049,515.191284 
M145.644608,515.435181 
	C149.031830,514.504517 152.419052,513.573853 155.998779,512.590332 
	C154.705811,508.829895 153.664383,505.801086 152.519989,502.472839 
	C148.526764,503.566040 145.093796,504.505859 141.131760,505.590546 
	C142.488983,509.153900 143.691422,512.310852 145.644608,515.435181 
M1772.671387,522.052063 
	C1779.669189,525.333984 1779.669189,525.333984 1784.082642,514.387817 
	C1781.169312,513.060425 1778.241333,511.726379 1775.220947,510.350250 
	C1773.468140,513.231079 1771.715332,515.647156 1770.545288,518.318420 
	C1770.194824,519.118896 1771.471313,520.631958 1772.671387,522.052063 
M117.717514,522.963440 
	C119.429245,522.106445 121.140984,521.249451 122.956261,520.340576 
	C120.945045,516.888489 119.126938,513.767761 117.120819,510.324402 
	C114.033974,511.746399 111.087173,513.103882 107.937515,514.554871 
	C109.288681,517.113770 110.613731,519.235657 111.561363,521.514465 
	C112.789833,524.468628 114.604454,524.682617 117.717514,522.963440 
z"/>
<path fill="#E3F2FF" opacity="1.000000" stroke="none" 
	d="
M257.983215,236.970871 
	C258.085785,236.406830 258.188385,235.842773 258.823120,234.956558 
	C273.831543,216.591873 292.471313,219.513153 311.077301,224.287140 
	C310.384918,221.970917 308.407440,219.060303 309.133087,217.209534 
	C316.318573,198.883148 339.803558,191.911240 353.975250,207.642441 
	C358.131073,212.255569 364.127228,217.102463 358.090607,224.529602 
	C357.838684,224.839523 358.020325,225.501846 357.871582,226.050812 
	C357.828796,226.067734 357.914398,226.033875 358.316132,225.859894 
	C372.458405,217.122101 387.219574,214.582901 402.996185,219.011642 
	C412.947296,221.805054 420.593781,227.556305 426.821198,238.550995 
	C423.774231,240.762543 420.663391,243.020493 417.552551,245.278427 
	C419.232819,245.613052 420.323914,245.311295 421.325043,244.824585 
	C436.780914,237.310928 452.263275,238.229218 467.414459,245.361755 
	C472.553467,247.780975 476.969757,251.735489 481.716309,254.988434 
	C482.129974,256.730591 482.543640,258.472778 482.664001,260.836670 
	C463.502289,295.689331 437.267090,289.731934 409.015106,275.082733 
	C411.122589,278.430573 413.785919,281.337891 415.916016,284.594055 
	C416.763550,285.889709 417.255157,288.705261 416.493408,289.545197 
	C413.085785,293.302490 409.692810,297.592651 405.343231,299.886475 
	C386.211884,309.976013 370.338501,308.505310 356.708099,290.432159 
	C371.044769,283.312714 373.403992,281.563477 375.369537,276.305328 
	C359.326813,284.171356 343.179199,284.956665 326.728516,277.805756 
	C326.502808,278.411163 326.277100,279.016541 326.051392,279.621948 
	C331.587646,283.220764 337.123932,286.819580 342.624969,290.395508 
	C326.433838,310.716248 283.673706,310.491119 270.785767,290.595520 
	C274.599396,286.649811 278.297729,282.823395 282.131958,278.944244 
	C282.179810,278.929291 282.091766,278.967102 281.619568,279.001831 
	C279.992584,279.417572 278.717957,279.760712 277.511566,280.266632 
	C260.540710,287.384033 243.837158,286.863098 228.325958,276.883972 
	C223.180191,273.573395 219.722794,267.638519 215.493484,262.903442 
	C215.668243,262.164368 215.843018,261.425293 216.498993,260.273865 
	C227.503616,251.489578 239.365479,246.617126 252.886230,245.863693 
	C253.860291,245.809433 255.105484,244.500870 255.612366,243.473434 
	C256.627106,241.416656 257.217560,239.150543 257.983215,236.970871 
M341.240234,251.403183 
	C341.577637,251.389114 341.915039,251.375031 342.252441,251.360962 
	C341.840698,251.234955 341.428986,251.108932 340.937958,250.290390 
	C339.766327,248.936584 338.801086,247.299301 337.391113,246.272888 
	C323.563446,236.206833 306.328186,238.047058 294.786285,250.757614 
	C294.148254,251.460190 293.824310,252.447906 293.085297,253.791824 
	C298.015503,252.015579 302.123993,250.299530 306.369965,249.050812 
	C318.110962,245.597870 329.616730,247.393234 341.240234,251.403183 
M408.434357,272.498383 
	C408.434357,272.498383 408.520386,272.450653 408.434357,272.498383 
z"/>
<path fill="#C5DFF6" opacity="1.000000" stroke="none" 
	d="
M1438.961304,286.098083 
	C1431.967773,286.066345 1424.974121,286.034607 1417.474609,285.562378 
	C1416.213867,279.178345 1415.459106,273.234772 1414.612305,266.566925 
	C1406.632568,273.030548 1402.936401,278.102539 1399.912354,286.110962 
	C1392.957520,286.075745 1386.002563,286.040527 1378.563477,285.562561 
	C1377.417969,279.186188 1376.756592,273.252563 1375.977905,266.265564 
	C1368.536987,272.372711 1363.870850,278.564850 1360.991211,286.093597 
	C1348.409302,285.556519 1337.928101,280.861755 1331.112305,269.940277 
	C1321.108765,253.910980 1329.410889,232.390030 1347.819092,226.012756 
	C1349.687744,225.365387 1351.614746,224.886566 1353.447632,224.349136 
	C1353.993652,219.268829 1354.022461,214.249557 1355.134399,209.482941 
	C1359.786621,189.538971 1380.003540,175.761902 1399.802979,178.738510 
	C1401.872437,179.049637 1403.925537,179.468430 1406.731201,179.990982 
	C1418.115356,183.490479 1425.688354,190.692795 1431.621216,199.693939 
	C1455.452026,190.655869 1475.785522,204.472519 1480.474121,222.445129 
	C1481.710938,227.186050 1484.136841,228.485138 1488.216064,228.929169 
	C1495.740234,229.748199 1501.550537,233.751160 1506.220215,239.378403 
	C1514.041260,248.802811 1514.402344,259.243408 1509.799194,270.187592 
	C1501.887207,282.227173 1490.522461,286.831512 1476.435059,286.061523 
	C1469.955933,285.707336 1463.441162,286.002167 1456.419434,285.574890 
	C1455.065186,279.538177 1454.234253,273.929291 1453.403442,268.320435 
	C1452.648804,268.108307 1451.894165,267.896179 1451.139526,267.684052 
	C1447.080200,273.822052 1443.020752,279.960083 1438.961304,286.098083 
z"/>
<path fill="#85A2BE" opacity="1.000000" stroke="none" 
	d="
M1510.261719,270.324371 
	C1514.402344,259.243408 1514.041260,248.802811 1506.220215,239.378403 
	C1501.550537,233.751160 1495.740234,229.748199 1488.216064,228.929169 
	C1484.136841,228.485138 1481.710938,227.186050 1480.474121,222.445129 
	C1475.785522,204.472519 1455.452026,190.655869 1431.621216,199.693939 
	C1425.688354,190.692795 1418.115356,183.490479 1407.138550,179.982498 
	C1421.161133,158.849213 1457.444580,154.048523 1476.199951,183.131165 
	C1482.772705,182.572647 1489.057129,181.191589 1495.190796,181.685303 
	C1510.169067,182.890915 1522.237427,193.606323 1525.884033,208.284195 
	C1526.721680,211.655533 1528.189087,212.710815 1531.514526,213.082214 
	C1546.677124,214.775665 1557.889648,227.393005 1557.722778,242.178436 
	C1557.561646,256.445648 1545.350098,268.990967 1530.193604,270.084686 
	C1523.728394,270.551239 1517.215454,270.355774 1510.261719,270.324371 
z"/>
<path fill="#B6D4EE" opacity="1.000000" stroke="none" 
	d="
M215.292587,263.256653 
	C219.722794,267.638519 223.180191,273.573395 228.325958,276.883972 
	C243.837158,286.863098 260.540710,287.384033 277.511566,280.266632 
	C278.717957,279.760712 279.992584,279.417572 281.617737,278.999390 
	C282.000000,279.000000 281.996033,278.996979 281.996033,278.996979 
	C278.297729,282.823395 274.599396,286.649811 270.785767,290.595520 
	C283.673706,310.491119 326.433838,310.716248 342.624969,290.395508 
	C337.123932,286.819580 331.587646,283.220764 326.051392,279.621948 
	C326.277100,279.016541 326.502808,278.411163 326.728516,277.805756 
	C343.179199,284.956665 359.326813,284.171356 375.369537,276.305328 
	C373.403992,281.563477 371.044769,283.312714 356.708099,290.432159 
	C370.338501,308.505310 386.211884,309.976013 405.343231,299.886475 
	C409.692810,297.592651 413.085785,293.302490 416.493408,289.545197 
	C417.255157,288.705261 416.763550,285.889709 415.916016,284.594055 
	C413.785919,281.337891 411.122589,278.430573 409.015106,275.082733 
	C437.267090,289.731934 463.502289,295.689331 482.622986,261.225830 
	C485.516815,271.520477 481.295349,279.971375 474.004181,286.817871 
	C461.842865,298.237640 446.800568,301.162628 430.682404,299.653717 
	C426.948120,299.304169 423.287811,298.164276 419.510681,297.370667 
	C403.553192,321.517059 372.496796,325.496246 350.168335,305.850281 
	C337.000824,316.069366 321.620239,319.124817 305.412598,317.867798 
	C290.160675,316.684875 276.260590,312.055817 266.682495,298.806030 
	C265.816833,297.608582 263.319611,297.029083 261.613922,297.091248 
	C250.358521,297.501495 239.545013,296.203674 229.682739,290.201660 
	C219.695602,284.123627 213.849136,275.824738 215.292587,263.256653 
z"/>
<path fill="#F8DD3F" opacity="1.000000" stroke="none" 
	d="
M157.020325,113.041321 
	C153.403702,131.520935 141.649231,142.374817 125.042686,142.961121 
	C107.644516,143.575378 92.836136,133.066483 88.567017,117.075844 
	C82.569168,94.610008 100.106712,73.441246 123.732307,74.629410 
	C146.653564,75.782158 158.753525,89.579987 157.020325,113.041321 
z"/>
<path fill="#E0EFFC" opacity="1.000000" stroke="none" 
	d="
M1743.426025,409.544220 
	C1734.912354,434.836945 1726.587280,459.795135 1718.040894,485.416901 
	C1713.203125,485.102356 1707.295654,484.718292 1701.410645,484.335693 
	C1702.139038,437.641052 1722.006226,396.108704 1734.006348,351.748077 
	C1744.329590,352.554413 1754.858765,353.376831 1765.995483,354.246704 
	C1758.295288,373.156677 1750.954956,391.183197 1743.426025,409.544220 
z"/>
<path fill="#E0EFFC" opacity="1.000000" stroke="none" 
	d="
M167.677307,465.540466 
	C158.052078,427.111328 141.429932,391.723053 126.194878,354.377686 
	C137.260010,353.446594 147.866714,352.554108 158.515106,351.658081 
	C167.975418,383.519897 177.727570,414.541931 186.224762,445.903992 
	C189.499130,457.989258 189.920685,470.847473 191.756393,484.184479 
	C185.212814,484.679230 179.343857,485.122955 172.614166,485.631775 
	C171.009872,479.034302 169.415894,472.479218 167.677307,465.540466 
z"/>
<path fill="#E0EFFC" opacity="1.000000" stroke="none" 
	d="
M147.297760,486.962280 
	C146.501297,488.962555 145.493713,490.252808 142.955231,490.702606 
	C133.113266,492.446320 132.719711,492.778625 128.735184,483.614502 
	C115.918877,454.137878 99.761330,426.480072 83.268829,399.000336 
	C79.256721,392.315369 74.658073,385.981384 70.301498,379.504608 
	C67.169014,374.847656 63.990643,370.221558 60.279957,364.769501 
	C73.148170,361.958344 85.225540,359.319946 97.398834,356.660583 
	C112.126755,394.664948 126.626549,431.895325 140.936523,469.198547 
	C143.182922,475.054443 144.568039,481.240753 146.783203,487.152924 
	C147.214996,487.031586 147.297760,486.962280 147.297760,486.962280 
z"/>
<path fill="#E0EFFC" opacity="1.000000" stroke="none" 
	d="
M1780.994507,393.861389 
	C1785.554321,381.531982 1790.016846,369.576385 1794.837769,356.660309 
	C1806.899292,359.282257 1818.967285,361.905609 1831.938354,364.725250 
	C1828.673340,369.619934 1825.962402,373.727356 1823.208130,377.805389 
	C1803.750000,406.614258 1785.706665,436.238770 1771.115845,467.864868 
	C1767.777466,475.101074 1764.433105,482.342407 1760.760864,489.409546 
	C1760.108887,490.664307 1757.782349,491.810944 1756.306274,491.722443 
	C1752.864990,491.516083 1749.470703,490.527466 1745.036011,489.654846 
	C1754.780518,456.834412 1767.041870,425.244263 1780.994507,393.861389 
z"/>
<path fill="#E0EFFC" opacity="1.000000" stroke="none" 
	d="
M72.420700,469.614075 
	C51.505512,443.481689 30.823526,417.618896 9.368999,390.790039 
	C18.448793,386.351074 27.240892,381.919220 36.210262,377.881104 
	C37.076462,377.491150 39.553356,379.206512 40.415630,380.515594 
	C46.721558,390.089020 53.021347,399.679077 58.919067,409.506378 
	C75.285820,436.778168 91.459885,464.165619 107.690948,491.518707 
	C108.365433,492.655396 108.847137,493.906433 109.683144,495.658539 
	C106.023582,497.477997 102.422653,499.268311 98.428322,501.254242 
	C89.750946,490.692841 81.202415,480.288269 72.420700,469.614075 
z"/>
<path fill="#E0EFFC" opacity="1.000000" stroke="none" 
	d="
M1857.404419,422.428589 
	C1836.176025,448.943085 1815.184814,475.192719 1794.211304,501.420349 
	C1789.824341,499.258423 1786.293823,497.518555 1782.600586,495.698456 
	C1803.832031,454.322357 1829.625000,416.202606 1854.543945,376.453979 
	C1863.955322,381.261261 1873.173828,385.970093 1883.064819,391.022400 
	C1874.206543,401.873138 1865.924194,412.018463 1857.404419,422.428589 
z"/>
<path fill="#FBFBFC" opacity="1.000000" stroke="none" 
	d="
M481.664429,254.649078 
	C476.969757,251.735489 472.553467,247.780975 467.414459,245.361755 
	C452.263275,238.229218 436.780914,237.310928 421.325043,244.824585 
	C420.323914,245.311295 419.232819,245.613052 417.552551,245.278427 
	C420.663391,243.020493 423.774231,240.762543 426.821198,238.550995 
	C420.593781,227.556305 412.947296,221.805054 402.996185,219.011642 
	C387.219574,214.582901 372.458405,217.122101 358.316101,225.859894 
	C358.020325,225.501846 357.838684,224.839523 358.090607,224.529602 
	C364.127228,217.102463 358.131073,212.255569 353.975250,207.642441 
	C339.803558,191.911240 316.318573,198.883148 309.133087,217.209534 
	C308.407440,219.060303 310.384918,221.970917 311.077301,224.287140 
	C292.471313,219.513153 273.831543,216.591873 259.050903,234.781860 
	C261.221405,223.049545 272.843628,212.740784 285.697021,211.024612 
	C293.811310,209.941208 299.802460,210.729553 307.601776,213.946564 
	C312.501312,201.381119 319.901855,191.058121 334.716400,190.665894 
	C348.977142,190.288315 356.423645,200.103180 361.990112,212.034302 
	C373.502563,206.285141 385.423889,205.518158 397.664246,208.605576 
	C410.264221,211.783676 419.551727,219.102463 425.169647,230.867447 
	C448.039703,229.068176 469.168091,231.259521 481.664429,254.649078 
z"/>
<path fill="#257DB8" opacity="1.000000" stroke="none" 
	d="
M1791.513184,48.937958 
	C1786.859619,60.991383 1791.116211,71.326218 1801.595459,74.281357 
	C1810.000732,76.651642 1818.882812,69.791771 1818.207397,61.451469 
	C1817.563965,53.504902 1810.363647,49.724342 1803.426514,53.686974 
	C1802.785767,54.052990 1802.125122,54.384457 1800.889648,55.043568 
	C1803.955811,49.748913 1809.431152,48.545975 1814.356567,51.432026 
	C1820.763916,55.186481 1822.323364,64.529022 1817.570557,70.687256 
	C1812.109253,77.763153 1801.180176,78.839005 1794.413330,72.966873 
	C1788.055054,67.449356 1785.643311,58.939762 1788.257690,51.247211 
	C1791.191162,42.615509 1799.772827,36.328041 1809.156982,35.935055 
	C1829.921875,35.065475 1844.144775,57.884995 1835.261597,77.834709 
	C1834.592407,79.337379 1833.813843,80.791344 1832.909180,82.627151 
	C1843.044067,84.624321 1849.626953,90.293983 1851.506104,100.386749 
	C1852.707153,106.837631 1850.983521,112.637665 1845.811279,117.044365 
	C1840.784302,121.327217 1835.043213,122.089119 1828.942993,119.941330 
	C1823.006714,117.851273 1819.616699,110.998062 1821.029053,104.396095 
	C1822.176147,99.034401 1827.255615,95.438087 1832.949097,95.956718 
	C1838.137207,96.429314 1841.684448,100.741905 1841.173340,105.955231 
	C1840.728516,110.494125 1837.748413,112.664383 1831.784668,112.163948 
	C1833.016235,111.390732 1833.675049,110.708092 1834.446655,110.538651 
	C1838.031738,109.751465 1840.060791,107.262177 1838.887085,104.076050 
	C1838.009521,101.694145 1835.378052,98.724281 1833.167236,98.388390 
	C1830.562378,97.992630 1826.170898,99.389793 1825.074463,101.390663 
	C1823.470215,104.318352 1823.132568,108.734467 1824.016602,112.046013 
	C1825.359375,117.075500 1830.674194,119.413040 1836.537476,118.950966 
	C1842.146851,118.508896 1847.286743,114.392494 1848.920654,108.821060 
	C1850.971313,101.828766 1849.523071,95.571320 1844.287231,90.463669 
	C1838.365845,84.686890 1831.210571,83.654587 1823.440674,85.705925 
	C1821.764038,86.148582 1820.130005,86.752922 1818.476318,87.282784 
	C1818.286621,86.724426 1818.097046,86.166069 1817.907471,85.607712 
	C1820.852905,84.716911 1823.844727,83.951385 1826.726562,82.888390 
	C1828.454102,82.251099 1830.621704,81.562164 1831.547974,80.191368 
	C1840.173584,67.427040 1835.589233,48.515259 1822.243286,41.007118 
	C1811.140991,34.761211 1799.120361,37.759014 1791.513184,48.937958 
z"/>
<path fill="#257DB8" opacity="1.000000" stroke="none" 
	d="
M1856.977783,150.276718 
	C1864.860840,150.047485 1872.046509,149.197128 1878.062500,144.159225 
	C1887.847412,135.965210 1888.109619,121.841682 1878.526611,114.796715 
	C1873.479980,111.086739 1865.806519,110.718781 1861.159058,113.963867 
	C1856.331543,117.334610 1854.207642,123.166122 1856.011230,128.412186 
	C1857.455811,132.613922 1860.509277,134.888397 1864.913574,135.259842 
	C1868.560913,135.567429 1871.512085,134.353745 1873.083618,130.850510 
	C1874.694336,127.259308 1874.556152,123.844109 1870.746826,121.792679 
	C1867.161499,119.861916 1864.338501,120.940933 1862.777222,124.865372 
	C1862.629639,125.236191 1862.098999,125.454651 1861.405396,126.023331 
	C1860.647827,121.976540 1862.896973,120.155716 1865.786255,119.303711 
	C1869.522217,118.202057 1872.799683,119.458611 1874.777466,122.905426 
	C1877.046021,126.858749 1876.221436,130.639465 1873.298096,133.950912 
	C1870.189331,137.472519 1864.737793,138.382004 1860.470947,136.239716 
	C1854.539062,133.261505 1852.030151,127.324463 1853.894531,120.678268 
	C1855.923950,113.443146 1862.607178,108.818954 1870.153931,109.428032 
	C1877.364258,110.009949 1884.746948,115.425880 1886.567627,122.158134 
	C1888.798950,130.409836 1887.511963,138.045700 1880.948730,144.148132 
	C1872.104492,152.371460 1861.276367,153.346848 1850.080200,151.969498 
	C1838.851929,150.588211 1828.579224,146.349457 1819.185547,140.038834 
	C1818.699097,139.712067 1818.409180,139.092651 1818.247437,138.149597 
	C1830.423096,144.206223 1842.444092,150.537704 1856.977783,150.276718 
z"/>
<path fill="#257DB8" opacity="1.000000" stroke="none" 
	d="
M1692.911621,128.253448 
	C1709.621704,133.439606 1726.452759,135.244339 1743.439087,136.137024 
	C1771.338867,137.603271 1798.982544,135.640366 1826.314697,129.870667 
	C1831.901489,128.691330 1837.299316,126.617706 1843.287598,126.057014 
	C1840.311279,127.347366 1837.448120,129.170395 1834.338013,129.831421 
	C1823.620605,132.109390 1812.875366,134.395706 1802.034058,135.921890 
	C1779.718384,139.063400 1757.264160,139.538376 1734.785522,137.965500 
	C1717.450195,136.752533 1700.422852,133.873398 1684.343628,126.994896 
	C1679.754517,125.031738 1675.595459,122.063606 1671.831421,118.567459 
	C1678.734131,121.749443 1685.636963,124.931427 1692.911621,128.253448 
z"/>
<path fill="#257DB8" opacity="1.000000" stroke="none" 
	d="
M1766.852783,102.051590 
	C1780.954102,97.689011 1794.165283,92.391716 1805.406494,83.026794 
	C1805.715210,83.360703 1806.023926,83.694618 1806.332520,84.028526 
	C1805.160278,85.260704 1804.139038,86.697166 1802.792114,87.693413 
	C1789.411011,97.591904 1774.017090,103.060905 1758.043335,106.545273 
	C1732.047974,112.215652 1705.712158,114.589752 1679.172852,110.913002 
	C1672.958740,110.052086 1666.924194,107.895164 1660.982788,105.391479 
	C1696.559082,114.684891 1731.572754,110.788612 1766.852783,102.051590 
z"/>
<path fill="#257DB8" opacity="1.000000" stroke="none" 
	d="
M1381.178589,319.354004 
	C1385.299683,313.190948 1389.303589,307.398865 1393.307373,301.606812 
	C1393.812012,301.850891 1394.316650,302.095001 1394.821289,302.339111 
	C1396.750854,309.282379 1398.776855,316.195343 1397.325562,323.623413 
	C1396.064087,330.080475 1391.978638,333.570984 1386.937012,332.327179 
	C1381.385742,330.957642 1379.246460,326.369324 1381.178589,319.354004 
z"/>
<path fill="#257DB8" opacity="1.000000" stroke="none" 
	d="
M1421.626953,315.761902 
	C1425.339966,310.914551 1428.857544,306.389771 1433.076904,300.962250 
	C1435.693237,309.320892 1437.228516,316.280426 1436.069702,323.661102 
	C1435.463257,327.523376 1434.194458,331.282928 1430.068481,331.841980 
	C1427.319702,332.214417 1423.811890,331.319031 1421.522095,329.727600 
	C1418.110718,327.356842 1418.426392,323.412109 1419.859009,319.738251 
	C1420.340332,318.503632 1420.904785,317.301483 1421.626953,315.761902 
z"/>
<path fill="#257DB8" opacity="1.000000" stroke="none" 
	d="
M1360.980469,286.510284 
	C1363.870850,278.564850 1368.536987,272.372711 1375.977905,266.265564 
	C1376.756592,273.252563 1377.417969,279.186188 1378.103027,285.578979 
	C1378.046509,287.022491 1378.049072,288.022095 1377.871826,288.988739 
	C1376.860840,294.503143 1373.311157,297.569916 1368.498657,297.141449 
	C1363.551270,296.700958 1360.944458,293.164246 1360.980469,286.510284 
z"/>
<path fill="#257DB8" opacity="1.000000" stroke="none" 
	d="
M1399.869507,286.450195 
	C1402.936401,278.102539 1406.632568,273.030548 1414.612305,266.566925 
	C1415.459106,273.234772 1416.213867,279.178345 1417.009277,285.572083 
	C1416.866333,287.164764 1416.758057,288.325562 1416.486206,289.446655 
	C1415.148682,294.960510 1411.443481,297.828003 1406.668213,297.099701 
	C1401.987183,296.385742 1399.484009,292.613403 1399.869507,286.450195 
z"/>
<path fill="#257DB8" opacity="1.000000" stroke="none" 
	d="
M1438.923340,286.465088 
	C1443.020752,279.960083 1447.080200,273.822052 1451.139526,267.684052 
	C1451.894165,267.896179 1452.648804,268.108307 1453.403442,268.320435 
	C1454.234253,273.929291 1455.065186,279.538177 1455.951172,285.582916 
	C1455.749634,287.488586 1455.549683,288.971069 1455.226074,290.425995 
	C1453.973755,296.054718 1449.839966,299.094360 1444.955444,298.022644 
	C1440.082764,296.953491 1437.718628,292.595154 1438.923340,286.465088 
z"/>
<path fill="#257DB8" opacity="1.000000" stroke="none" 
	d="
M1742.195679,101.994476 
	C1740.867310,101.884468 1739.983032,101.763084 1739.098877,101.641708 
	C1739.084717,101.284813 1739.070679,100.927925 1739.056641,100.571030 
	C1742.321899,100.046104 1745.621582,99.677353 1748.846313,98.968147 
	C1760.413574,96.424248 1770.130493,91.181229 1774.912720,79.607956 
	C1778.720703,70.392563 1772.902954,60.097702 1763.134033,58.374088 
	C1758.607422,57.575428 1754.861938,59.162994 1752.308960,62.932659 
	C1749.952759,66.411942 1748.833862,70.366127 1751.415283,74.126678 
	C1752.635742,75.904755 1754.700439,77.605995 1756.723511,78.220909 
	C1760.406128,79.340187 1763.732422,77.979088 1765.448853,74.336266 
	C1766.792847,71.483620 1766.416748,68.103874 1763.310669,67.181709 
	C1761.046631,66.509583 1758.135986,68.015045 1755.541016,68.544174 
	C1755.198975,65.950661 1757.968750,63.485504 1762.014526,64.280899 
	C1766.293213,65.122108 1768.956421,69.400269 1767.904785,73.743034 
	C1766.685669,78.777336 1760.764526,81.867912 1755.656616,80.136063 
	C1750.013062,78.222534 1746.922974,72.520538 1748.316650,66.592056 
	C1749.934814,59.708565 1756.356812,55.147369 1763.137817,56.065369 
	C1773.259277,57.435589 1780.640137,68.555199 1777.493896,78.311058 
	C1773.282227,91.370491 1763.059448,97.659912 1750.539673,100.948738 
	C1747.991699,101.618073 1745.277344,101.654778 1742.195679,101.994476 
z"/>
<path fill="#257DB8" opacity="1.000000" stroke="none" 
	d="
M1788.032227,160.077606 
	C1791.712524,156.024261 1795.845581,155.084625 1800.487427,157.151306 
	C1804.869141,159.102173 1806.573486,164.395935 1804.341675,168.542053 
	C1802.182617,172.553024 1798.722412,173.304474 1794.014160,170.310913 
	C1794.964233,170.074448 1795.497925,169.993240 1795.993408,169.809402 
	C1798.252686,168.971313 1801.476807,168.698120 1802.465820,167.072769 
	C1803.366577,165.592560 1802.594971,161.565948 1801.201050,160.576477 
	C1799.107910,159.090439 1795.594971,158.344238 1793.105957,158.965851 
	C1789.199341,159.941498 1787.675171,163.578903 1787.687866,167.592407 
	C1787.702271,172.093307 1790.069092,175.111877 1793.999146,176.944229 
	C1799.028809,179.289246 1804.715698,178.533875 1808.406616,174.898056 
	C1813.273438,170.103668 1814.354004,164.220245 1812.373047,157.865250 
	C1810.489746,151.823868 1806.012451,147.601059 1800.116089,146.464661 
	C1793.081299,145.108871 1785.742432,145.331390 1778.535767,144.863846 
	C1777.940308,144.825226 1777.348145,144.738373 1776.489502,144.645172 
	C1776.878906,143.920776 1777.024048,143.233353 1777.320190,143.160492 
	C1788.575684,140.392044 1799.376221,141.642395 1808.588989,148.798386 
	C1816.894043,155.249115 1817.538452,167.552521 1810.864868,175.144394 
	C1805.787354,180.920486 1797.095825,182.001556 1790.943359,177.622086 
	C1785.285278,173.594452 1784.139893,167.279083 1788.032227,160.077606 
z"/>
<path fill="#FBFBFC" opacity="1.000000" stroke="none" 
	d="
M257.541992,236.994080 
	C257.217560,239.150543 256.627106,241.416656 255.612366,243.473434 
	C255.105484,244.500870 253.860291,245.809433 252.886230,245.863693 
	C239.365479,246.617126 227.503616,251.489578 216.655792,259.926422 
	C222.292892,246.231308 234.103348,240.789642 247.736237,238.058472 
	C250.804138,237.443848 253.976501,237.350571 257.541992,236.994080 
z"/>
<path fill="#257DB8" opacity="1.000000" stroke="none" 
	d="
M1765.723877,121.684204 
	C1750.026611,122.539909 1734.763306,123.622597 1719.484985,123.914932 
	C1713.333252,124.032623 1707.148315,122.418098 1701.020386,120.703850 
	C1735.203735,124.968178 1768.512329,122.741493 1800.707153,109.734116 
	C1790.422729,117.144989 1778.238525,119.232635 1765.723877,121.684204 
z"/>
<path fill="#F8DD3F" opacity="1.000000" stroke="none" 
	d="
M55.421673,113.172379 
	C51.982227,113.135445 49.027775,112.785851 49.658981,108.677551 
	C49.829041,107.570686 51.358662,105.759987 52.177704,105.806183 
	C60.733776,106.288673 69.274811,107.055817 77.810356,107.848213 
	C78.459122,107.908440 79.034225,108.762207 80.104141,109.613640 
	C72.021935,113.353287 63.846527,112.769630 55.421673,113.172379 
z"/>
<path fill="#F8DD3F" opacity="1.000000" stroke="none" 
	d="
M126.176422,163.637238 
	C126.357193,168.886398 126.735878,173.697937 126.477631,178.475021 
	C126.414238,179.647720 124.304909,181.540588 123.074661,181.590622 
	C121.791695,181.642822 119.239029,179.793777 119.294922,178.905121 
	C119.842346,170.201584 120.809189,161.524048 121.704758,152.844055 
	C121.747360,152.431122 122.239655,152.064606 123.987144,151.607239 
	C124.704628,155.467133 125.422119,159.327026 126.176422,163.637238 
z"/>
<path fill="#F8DD3F" opacity="1.000000" stroke="none" 
	d="
M100.491211,146.271851 
	C101.065300,147.414017 101.833511,148.914001 101.400612,149.870224 
	C98.204918,156.929123 94.915535,163.957672 91.260002,170.783905 
	C90.680717,171.865646 87.722115,172.699768 86.574600,172.153839 
	C85.487984,171.636871 84.353844,168.497284 84.927353,167.641464 
	C89.775475,160.406754 95.010422,153.431259 100.491211,146.271851 
z"/>
<path fill="#F8DD3F" opacity="1.000000" stroke="none" 
	d="
M193.664139,104.978249 
	C196.356659,110.355919 195.561707,112.179359 190.467834,112.070404 
	C183.847549,111.928802 177.227280,111.418533 170.629745,110.817467 
	C168.796951,110.650490 167.044617,109.600372 165.296158,108.317818 
	C174.345383,104.291389 183.793961,104.347008 193.664139,104.978249 
z"/>
<path fill="#F8DD3F" opacity="1.000000" stroke="none" 
	d="
M90.116653,60.936394 
	C87.910919,57.226357 85.647415,53.931221 84.044594,50.341122 
	C83.582512,49.306126 84.674698,47.068520 85.710777,46.050163 
	C86.414879,45.358101 89.075783,45.276100 89.475746,45.864052 
	C94.836533,53.744507 99.623375,61.932034 101.241089,71.458710 
	C100.705009,71.849472 100.168930,72.240234 99.632851,72.631004 
	C96.525314,68.833694 93.417786,65.036385 90.116653,60.936394 
z"/>
<path fill="#F8DD3F" opacity="1.000000" stroke="none" 
	d="
M160.764526,48.190414 
	C156.444397,57.198341 151.533020,65.416351 144.334030,71.891136 
	C143.774567,71.605766 143.215118,71.320404 142.655670,71.035034 
	C143.322495,68.601822 143.683426,66.029037 144.717224,63.763256 
	C147.184296,58.356102 149.724548,52.952393 152.697922,47.815079 
	C155.359116,43.217094 157.046036,43.385246 160.764526,48.190414 
z"/>
<path fill="#F8DD3F" opacity="1.000000" stroke="none" 
	d="
M120.809090,64.925018 
	C119.765259,56.420181 118.849586,48.244732 118.147774,40.050964 
	C117.917160,37.358551 119.320633,35.176601 122.232491,36.050919 
	C123.709061,36.494278 125.710648,38.728634 125.669128,40.098568 
	C125.444504,47.510490 124.767593,54.917976 123.936508,62.292053 
	C123.814690,63.372944 122.033760,64.266846 120.809090,64.925018 
z"/>
<path fill="#F8DD3F" opacity="1.000000" stroke="none" 
	d="
M156.123001,158.811478 
	C157.864777,161.843536 159.695847,164.452545 160.848175,167.333084 
	C161.259506,168.361298 160.413940,170.617920 159.440155,171.277481 
	C158.395477,171.985062 155.611008,172.083633 155.154449,171.400131 
	C149.965652,163.632248 145.174927,155.622147 144.199341,145.855331 
	C149.855057,148.527893 152.614212,153.780762 156.123001,158.811478 
z"/>
<path fill="#F8DD3F" opacity="1.000000" stroke="none" 
	d="
M186.342987,143.641403 
	C184.726410,144.897552 182.511154,146.967438 181.860870,146.557114 
	C174.729340,142.057144 167.819519,137.202011 160.925369,132.335800 
	C160.291138,131.888138 160.179718,130.699783 159.254395,128.493744 
	C163.119781,129.729736 165.965240,130.335587 168.539688,131.527084 
	C173.652237,133.893250 178.698639,136.436783 183.585007,139.234283 
	C184.894379,139.983917 185.527481,141.914810 186.342987,143.641403 
z"/>
<path fill="#F8DD3F" opacity="1.000000" stroke="none" 
	d="
M77.773918,138.727844 
	C73.426643,141.521332 69.361458,144.098434 65.292412,146.669434 
	C63.057423,148.081589 60.593075,148.651367 59.709049,145.571671 
	C59.280006,144.076981 60.119450,141.088242 61.294193,140.449997 
	C67.976746,136.819275 74.914841,133.652985 81.819679,130.444199 
	C82.766083,130.004395 84.011559,130.208145 85.118561,130.113937 
	C85.429214,130.537567 85.739868,130.961212 86.050522,131.384842 
	C83.385147,133.759537 80.719772,136.134216 77.773918,138.727844 
z"/>
<path fill="#F8DD3F" opacity="1.000000" stroke="none" 
	d="
M184.212860,70.651268 
	C187.016525,73.724808 186.513046,75.895416 183.151123,77.530739 
	C176.920258,80.561577 170.744797,83.710960 164.453033,86.608521 
	C162.985184,87.284515 161.144043,87.149963 159.474640,87.388344 
	C159.149078,86.760643 158.823517,86.132942 158.497955,85.505249 
	C164.287003,81.360580 169.952515,77.024529 175.927505,73.167946 
	C178.232086,71.680435 181.239609,71.282005 184.212860,70.651268 
z"/>
<path fill="#F8DD3F" opacity="1.000000" stroke="none" 
	d="
M81.302521,87.791595 
	C74.355728,84.580971 67.773056,81.521523 61.258125,78.324043 
	C59.032658,77.231796 57.329941,75.686859 59.064693,72.840675 
	C60.668999,70.208511 62.706608,70.334190 64.950775,71.837448 
	C70.717270,75.700150 76.503151,79.536758 82.182320,83.524719 
	C83.431114,84.401634 84.269325,85.863235 86.014381,87.888687 
	C83.806206,87.888687 82.749695,87.888687 81.302521,87.791595 
z"/>
<path fill="#E0EFFC" opacity="1.000000" stroke="none" 
	d="
M1706.111206,497.994568 
	C1709.015869,497.994568 1711.468628,497.994568 1713.980957,497.994568 
	C1712.568726,510.070129 1713.512817,510.866547 1701.647461,509.346924 
	C1701.770142,506.611633 1702.095093,503.820129 1701.964966,501.049988 
	C1701.827393,498.119873 1703.375488,497.735901 1706.111206,497.994568 
z"/>
<path fill="#E0EFFC" opacity="1.000000" stroke="none" 
	d="
M190.272552,502.384583 
	C190.528137,504.937042 190.745209,507.042084 190.956238,509.088562 
	C180.962570,511.457703 178.985077,509.754333 178.202911,498.284424 
	C181.980499,498.284424 185.742920,498.284424 189.919159,498.284424 
	C190.018082,499.431976 190.126038,500.684570 190.272552,502.384583 
z"/>
<path fill="#E0EFFC" opacity="1.000000" stroke="none" 
	d="
M1745.299561,515.126709 
	C1742.259644,514.311890 1739.595337,513.561646 1736.447754,512.675293 
	C1737.517334,509.289581 1738.483521,506.230988 1739.640259,502.569275 
	C1743.500122,503.544769 1747.079346,504.449310 1750.925781,505.421387 
	C1750.053955,508.404083 1749.438599,511.120056 1748.405884,513.666870 
	C1748.100464,514.420288 1746.618164,514.696472 1745.299561,515.126709 
z"/>
<path fill="#E0EFFC" opacity="1.000000" stroke="none" 
	d="
M145.269226,515.451538 
	C143.691422,512.310852 142.488983,509.153900 141.131760,505.590546 
	C145.093796,504.505859 148.526764,503.566040 152.519989,502.472839 
	C153.664383,505.801086 154.705811,508.829895 155.998779,512.590332 
	C152.419052,513.573853 149.031830,514.504517 145.269226,515.451538 
z"/>
<path fill="#E0EFFC" opacity="1.000000" stroke="none" 
	d="
M1772.336914,521.935303 
	C1771.471313,520.631958 1770.194824,519.118896 1770.545288,518.318420 
	C1771.715332,515.647156 1773.468140,513.231079 1775.220947,510.350250 
	C1778.241333,511.726379 1781.169312,513.060425 1784.082642,514.387817 
	C1779.669189,525.333984 1779.669189,525.333984 1772.336914,521.935303 
z"/>
<path fill="#E0EFFC" opacity="1.000000" stroke="none" 
	d="
M117.389343,523.074951 
	C114.604454,524.682617 112.789833,524.468628 111.561363,521.514465 
	C110.613731,519.235657 109.288681,517.113770 107.937515,514.554871 
	C111.087173,513.103882 114.033974,511.746399 117.120819,510.324402 
	C119.126938,513.767761 120.945045,516.888489 122.956261,520.340576 
	C121.140984,521.249451 119.429245,522.106445 117.389343,523.074951 
z"/>
<path fill="#E0EFFC" opacity="1.000000" stroke="none" 
	d="
M147.218719,487.085449 
	C147.222458,487.139313 147.133698,486.874695 147.133698,486.874695 
	C147.133698,486.874695 147.092987,487.120148 147.195374,487.041199 
	C147.297760,486.962280 147.214996,487.031586 147.218719,487.085449 
z"/>
<path fill="#FBFBFC" opacity="1.000000" stroke="none" 
	d="
M340.989624,251.015121 
	C329.616730,247.393234 318.110962,245.597870 306.369965,249.050812 
	C302.123993,250.299530 298.015503,252.015579 293.085297,253.791824 
	C293.824310,252.447906 294.148254,251.460190 294.786285,250.757614 
	C306.328186,238.047058 323.563446,236.206833 337.391113,246.272888 
	C338.801086,247.299301 339.766327,248.936584 340.969788,250.644379 
	C341.001617,250.998352 340.989624,251.015121 340.989624,251.015121 
z"/>
<path fill="#FBFBFC" opacity="1.000000" stroke="none" 
	d="
M341.009430,250.990631 
	C341.428986,251.108932 341.840698,251.234955 342.252441,251.360962 
	C341.915039,251.375031 341.577637,251.389114 341.114929,251.209152 
	C340.989624,251.015121 341.001617,250.998352 341.009430,250.990631 
z"/>
<path fill="#B6D4EE" opacity="1.000000" stroke="none" 
	d="
M282.001831,279.002441 
	C282.091766,278.967102 282.179810,278.929291 282.131958,278.944244 
	C281.996033,278.996979 282.000000,279.000000 282.001831,279.002441 
z"/>
<path fill="#B6D4EE" opacity="1.000000" stroke="none" 
	d="
M408.477356,272.474518 
	C408.520386,272.450653 408.434357,272.498383 408.477356,272.474518 
z"/>
<path fill="#FBFBFC" opacity="1.000000" stroke="none" 
	d="
M357.871582,226.050812 
	C357.914398,226.033875 357.828796,226.067734 357.871582,226.050812 
z"/>
</svg>