<?xml version="1.0" encoding="UTF-8"?>
<svg version="1.1" xmlns="http://www.w3.org/2000/svg" width="322" height="212">
<path d="M0 0 C1.24295693 0.89264548 2.47624996 1.79891022 3.69921875 2.71875 C7.91394538 5.09148499 13.0538256 5.18096994 17.80859375 4.90625 C18.79859375 4.24625 19.78859375 3.58625 20.80859375 2.90625 C28.46401811 2.00561184 35.56747671 2.08637744 41.80859375 6.90625 C49.0176096 13.11675681 53.78861413 18.84631113 56.80859375 27.90625 C56.87662342 29.63420352 56.8935502 31.36460365 56.87109375 33.09375 C56.86207031 33.99480469 56.85304687 34.89585938 56.84375 35.82421875 C56.82634766 36.85482422 56.82634766 36.85482422 56.80859375 37.90625 C57.65421875 38.1125 58.49984375 38.31875 59.37109375 38.53125 C63.60955049 40.2266327 66.70772663 42.56562511 69.80859375 45.90625 C70.08960938 46.62039062 70.370625 47.33453125 70.66015625 48.0703125 C71.03914062 48.67617188 71.418125 49.28203125 71.80859375 49.90625 C74.42315204 50.46402129 74.42315204 50.46402129 77.43359375 50.40625 C84.4499834 50.77641924 89.12487143 52.29315195 94.18359375 57.21875 C96.13384552 60.44416639 96.94728505 63.24568804 97.80859375 66.90625 C98.50984375 66.93203125 99.21109375 66.9578125 99.93359375 66.984375 C107.80793502 67.45512366 114.18122121 68.73651939 119.68359375 74.71875 C123.72239214 80.77694758 124.36885399 86.80527718 123.80859375 93.90625 C123.47859375 94.9375 123.14859375 95.96875 122.80859375 97.03125 C122.48028927 99.94871287 122.48028927 99.94871287 124.41796875 101.6171875 C125.86479825 102.82639901 127.3235705 104.02144109 128.79296875 105.203125 C132.31138205 108.17604787 133.57278747 110.93920772 134.1171875 115.48046875 C134.40453885 121.86315169 133.7419899 125.83423917 129.80859375 130.90625 C123.86424707 135.51615151 119.12652624 136.4614035 111.80859375 135.90625 C110.79796875 135.555625 109.78734375 135.205 108.74609375 134.84375 C103.14240441 133.05533851 97.98357125 134.7916323 92.54296875 136.45703125 C91.65319336 136.72813721 90.76341797 136.99924316 89.84667969 137.27856445 C89.17411133 137.48570068 88.50154297 137.69283691 87.80859375 137.90625 C88.712146 138.28958496 89.61569824 138.67291992 90.54663086 139.06787109 C93.8909702 140.48877627 97.23154758 141.91834216 100.57104492 143.35058594 C102.01827109 143.96982785 103.46651327 144.58670074 104.91577148 145.20117188 C106.99603151 146.0836633 109.07251589 146.97454703 111.1484375 147.8671875 C111.79948959 148.14122406 112.45054169 148.41526062 113.12132263 148.69760132 C117.69472204 150.67850659 117.69472204 150.67850659 118.80859375 152.90625 C113.46751451 152.31144799 109.17425297 150.5033399 104.33984375 148.30859375 C102.70061323 147.58247367 101.0612874 146.85656872 99.421875 146.13085938 C96.85941839 144.9868265 94.29862776 143.83926331 91.73974609 142.68725586 C89.25639656 141.57234581 86.7673299 140.47108467 84.27734375 139.37109375 C83.51780396 139.02425034 82.75826416 138.67740692 81.97570801 138.3200531 C77.76044423 136.4659977 74.51035871 135.40078373 69.80859375 135.90625 C69.14859375 136.23625 68.48859375 136.56625 67.80859375 136.90625 C68.37368652 137.19346924 68.9387793 137.48068848 69.52099609 137.77661133 C72.0793789 139.08264443 74.6314747 140.40052184 77.18359375 141.71875 C78.07304687 142.17056641 78.9625 142.62238281 79.87890625 143.08789062 C80.7296875 143.52939453 81.58046875 143.97089844 82.45703125 144.42578125 C83.63531494 145.03063354 83.63531494 145.03063354 84.83740234 145.64770508 C86.80859375 146.90625 86.80859375 146.90625 88.80859375 149.90625 C83.63418538 149.2660088 79.26208977 146.95352203 74.62109375 144.71875 C73.77482422 144.31599854 72.92855469 143.91324707 72.05664062 143.49829102 C66.71278246 140.92237476 61.58095532 138.17053825 56.62109375 134.90234375 C54.71510235 133.66543565 54.71510235 133.66543565 51.80859375 133.90625 C62.20359375 140.83625 62.20359375 140.83625 72.80859375 147.90625 C71.48859375 148.23625 70.16859375 148.56625 68.80859375 148.90625 C66.26118469 147.26036871 63.9784867 145.60337151 61.62109375 143.71875 C54.47584847 138.24363143 47.99539686 133.84848622 38.80859375 132.90625 C38.56109375 133.525 38.31359375 134.14375 38.05859375 134.78125 C36.51774845 137.40068701 35.71879029 138.04105643 32.80859375 138.90625 C26.76692708 138.38541667 26.76692708 138.38541667 23.80859375 136.90625 C21.43614647 136.72353095 19.0602493 136.58451155 16.68359375 136.46875 C12.4409678 136.25929947 8.51826015 135.99913341 4.49609375 134.53125 C-0.36851994 133.7067392 -2.51143368 135.25819791 -6.7109375 137.58984375 C-16.07942647 142.56178199 -29.78762827 142.47645471 -39.81640625 139.59375 C-42.60781708 138.61956636 -44.94046499 137.50397771 -47.56640625 136.09375 C-48.43265625 135.701875 -49.29890625 135.31 -50.19140625 134.90625 C-51.53036485 135.56154542 -52.86292102 136.22997401 -54.19140625 136.90625 C-61.72082353 137.94064279 -68.60102505 136.71245946 -75.19140625 132.90625 C-75.77792969 132.21144531 -76.36445312 131.51664063 -76.96875 130.80078125 C-80.16599479 128.07553745 -83.30627052 128.35907759 -87.31640625 128.34375 C-96.55427005 128.0505623 -104.81672273 127.02184121 -112.19140625 120.90625 C-115.86285388 116.60179416 -116.32402487 111.40550203 -116.19140625 105.90625 C-114.89418761 101.86198011 -113.3316782 99.91332181 -110.00390625 97.46875 C-108.61171875 96.2003125 -108.61171875 96.2003125 -107.19140625 94.90625 C-107.02463343 91.48968976 -107.02463343 91.48968976 -107.19140625 87.90625 C-104.68161386 81.8409184 -101.20978949 78.58795259 -95.19140625 75.90625 C-94.20140625 75.90625 -93.21140625 75.90625 -92.19140625 75.90625 C-92.68640625 74.91625 -92.68640625 74.91625 -93.19140625 73.90625 C-93.59584848 68.04183762 -93.23676334 63.05258515 -90.19140625 57.90625 C-86.46271022 53.84258837 -83.06312594 51.04983598 -77.37890625 50.765625 C-75.25423779 50.69271971 -73.1291869 50.63021521 -71.00390625 50.578125 C-68.02352473 50.16294717 -68.02352473 50.16294717 -66.3125 47.6484375 C-65.14895968 44.80242597 -64.97630422 43.29954119 -65.25390625 40.28125 C-65.43352867 33.59530428 -63.94669395 27.03586409 -59.4375 21.9140625 C-55.43585156 18.42201856 -52.75121007 16.76514114 -47.37890625 16.78125 C-46.48171875 16.78382812 -45.58453125 16.78640625 -44.66015625 16.7890625 C-42.19140625 16.90625 -42.19140625 16.90625 -39.37890625 17.65625 C-36.98981249 18.16613724 -36.98981249 18.16613724 -34.62890625 16.21875 C-33.82453125 15.455625 -33.02015625 14.6925 -32.19140625 13.90625 C-31.53140625 13.308125 -30.87140625 12.71 -30.19140625 12.09375 C-28.48848846 10.23118366 -27.2896593 8.51401893 -25.94140625 6.40625 C-20.35587149 -1.41686345 -8.79179256 -4.38806046 0 0 Z " fill="#EFECEC" transform="translate(127.19140625,5.09375)"/>
<path d="M0 0 C2.25977819 1.48245891 4.12051961 3.26114461 6.02734375 5.16796875 C10.57228656 5.49260752 14.46180928 5.14852841 18.90234375 4.16796875 C26.91256021 2.46026923 34.68848678 2.03986171 42.02734375 6.16796875 C44.83984375 8.60546875 44.83984375 8.60546875 47.02734375 11.16796875 C47.77177734 12.01101562 47.77177734 12.01101562 48.53125 12.87109375 C50.49643877 15.88814597 51.29677563 19.02739581 52.15234375 22.48046875 C52.65121094 24.39279297 52.65121094 24.39279297 53.16015625 26.34375 C53.98154446 29.96599803 54.56084548 33.48834467 55.02734375 37.16796875 C56.22359375 37.47734375 57.41984375 37.78671875 58.65234375 38.10546875 C64.04817974 40.08330187 66.52538863 44.17353561 69.02734375 49.16796875 C69.02734375 49.82796875 69.02734375 50.48796875 69.02734375 51.16796875 C69.89617187 51.06097656 70.765 50.95398437 71.66015625 50.84375 C83.50148168 49.61193427 83.50148168 49.61193427 88.02734375 53.16796875 C92.83808473 57.72281925 95.7987963 61.6157157 97.02734375 68.16796875 C98.01734375 67.83796875 99.00734375 67.50796875 100.02734375 67.16796875 C105.64334291 66.79970651 109.20400364 66.95240868 114.02734375 70.16796875 C117.29514894 73.40044632 119.88128338 76.48579773 120.14086914 81.25268555 C120.13563232 82.03297119 120.13039551 82.81325684 120.125 83.6171875 C120.12177734 84.46474609 120.11855469 85.31230469 120.11523438 86.18554688 C120.10685547 87.06662109 120.09847656 87.94769531 120.08984375 88.85546875 C120.08533203 89.74814453 120.08082031 90.64082031 120.07617188 91.56054688 C120.06439358 93.76308862 120.04794539 95.96549474 120.02734375 98.16796875 C120.63320312 98.43996094 121.2390625 98.71195312 121.86328125 98.9921875 C125.7622397 101.11057467 128.13686239 104.64142927 130.33984375 108.41796875 C131.76112492 114.10309343 131.90768478 119.23121849 129.46484375 124.60546875 C126.42854769 127.7974723 124.2800108 128.98279925 120.02734375 130.16796875 C114.88373875 130.22090465 110.76848066 129.06442352 106.02734375 127.16796875 C103.2750901 127.44319412 101.45326358 128.4608668 98.96484375 129.73046875 C93.53723582 132.1218986 86.89051981 132.27113364 81.37109375 130.14453125 C80.59765625 129.82226562 79.82421875 129.5 79.02734375 129.16796875 C77.60421875 129.19890625 77.60421875 129.19890625 76.15234375 129.23046875 C72.1128546 129.14967897 69.65223177 127.907915 66.02734375 126.16796875 C66.83984375 124.23046875 66.83984375 124.23046875 68.02734375 122.16796875 C71.73441454 120.93227849 73.27256909 121.56298263 77.0078125 122.6015625 C78.17119141 122.92060547 79.33457031 123.23964844 80.53320312 123.56835938 C81.74814453 123.91060547 82.96308594 124.25285156 84.21484375 124.60546875 C85.44138672 124.94384766 86.66792969 125.28222656 87.93164062 125.63085938 C90.96570792 126.46906474 93.99738539 127.31505176 97.02734375 128.16796875 C97.02734375 127.17796875 97.02734375 126.18796875 97.02734375 125.16796875 C95.89296875 125.08546875 94.75859375 125.00296875 93.58984375 124.91796875 C85.94027942 124.09398031 78.48254812 122.0082316 71.02734375 120.16796875 C71.86328125 117.71875 71.86328125 117.71875 73.02734375 115.16796875 C75.65234375 114.35546875 75.65234375 114.35546875 78.02734375 114.16796875 C77.36734375 113.83796875 76.70734375 113.50796875 76.02734375 113.16796875 C74.71833417 110.54994958 75.30197481 109.59470627 76.02734375 106.79296875 C78.43942617 95.21497313 75.71921731 84.84558003 69.609375 74.84765625 C65.55118993 69.12485371 60.08330668 62.84795992 53.02734375 61.16796875 C50.01872352 61.02542837 47.03631589 61.04996984 44.02734375 61.16796875 C44.80078125 61.45929688 45.57421875 61.750625 46.37109375 62.05078125 C58.64609414 66.88178388 66.43831158 72.60870795 71.83984375 84.91796875 C74.60812055 93.1568878 74.81052026 101.97306012 72.02734375 110.16796875 C71.69734375 110.82796875 71.36734375 111.48796875 71.02734375 112.16796875 C61.12734375 110.51796875 51.22734375 108.86796875 41.02734375 107.16796875 C41.02734375 107.82796875 41.02734375 108.48796875 41.02734375 109.16796875 C41.69636719 109.20535156 42.36539063 109.24273437 43.0546875 109.28125 C52.18245842 109.90610412 61.05026426 111.47678908 70.02734375 113.16796875 C69.03734375 114.81796875 68.04734375 116.46796875 67.02734375 118.16796875 C61.08119036 117.52016534 55.35270594 116.44757589 49.52734375 115.10546875 C45.31984375 114.14640625 45.31984375 114.14640625 41.02734375 113.16796875 C48.94734375 115.47796875 56.86734375 117.78796875 65.02734375 120.16796875 C64.03734375 121.15796875 63.04734375 122.14796875 62.02734375 123.16796875 C57.5485767 122.92401356 53.84948295 121.40109797 49.77734375 119.60546875 C46.0302937 117.7999402 46.0302937 117.7999402 42.02734375 117.16796875 C47.30734375 119.80796875 52.58734375 122.44796875 58.02734375 125.16796875 C56.04734375 126.15796875 56.04734375 126.15796875 54.02734375 127.16796875 C50.86328125 126.05078125 50.86328125 126.05078125 47.40234375 124.29296875 C43.3961445 122.02507085 43.3961445 122.02507085 39.02734375 121.16796875 C40.01734375 122.15796875 41.00734375 123.14796875 42.02734375 124.16796875 C41.03734375 124.66296875 41.03734375 124.66296875 40.02734375 125.16796875 C40.35734375 126.15796875 40.68734375 127.14796875 41.02734375 128.16796875 C40.26421875 128.62171875 39.50109375 129.07546875 38.71484375 129.54296875 C36.79101561 130.70621367 34.89793151 131.92091025 33.02734375 133.16796875 C26.46130601 132.60193101 26.46130601 132.60193101 25.02734375 131.16796875 C23.34278954 131.00809893 21.65415031 130.8905628 19.96484375 130.79296875 C14.79098485 130.38095127 10.77274451 129.22729361 6.02734375 127.16796875 C6.36507812 126.57371094 6.7028125 125.97945313 7.05078125 125.3671875 C13.26957644 113.81029355 14.58414514 101.95216416 11.23828125 89.1484375 C9.1662074 83.12594644 6.30898194 77.61495016 3.02734375 72.16796875 C3.76984375 71.94109375 4.51234375 71.71421875 5.27734375 71.48046875 C9.50701179 69.46176355 11.40138236 66.57638188 13.27734375 62.35546875 C13.52484375 61.63359375 13.77234375 60.91171875 14.02734375 60.16796875 C15.67734375 60.49796875 17.32734375 60.82796875 19.02734375 61.16796875 C20.02734375 64.16796875 20.02734375 64.16796875 20.02734375 66.16796875 C20.88005859 65.88179687 20.88005859 65.88179687 21.75 65.58984375 C25.93775749 64.38734911 28.9365771 63.59897533 32.90234375 65.73046875 C36.64473586 68.64953459 38.64221365 70.52501346 39.33984375 75.3125 C39.54920713 79.25769125 39.33987224 81.6030134 37.40234375 85.10546875 C34.71046781 87.44315049 32.46407315 88.3087864 29.02734375 89.16796875 C29.02734375 89.82796875 29.02734375 90.48796875 29.02734375 91.16796875 C30.75984375 90.58015625 30.75984375 90.58015625 32.52734375 89.98046875 C37.51469694 88.68910051 40.44448544 90.04021311 45.02734375 92.16796875 C43.37734375 90.18796875 41.72734375 88.20796875 40.02734375 86.16796875 C41.01734375 84.18796875 41.01734375 84.18796875 42.02734375 82.16796875 C43.01734375 82.16796875 44.00734375 82.16796875 45.02734375 82.16796875 C45.52234375 85.63296875 45.52234375 85.63296875 46.02734375 89.16796875 C47.34734375 89.16796875 48.66734375 89.16796875 50.02734375 89.16796875 C49.60102271 86.07555049 49.0981923 83.10733874 48.02734375 80.16796875 C46.36661526 79.48664424 44.69957675 78.82054748 43.02734375 78.16796875 C41.99456522 75.97112628 41.34099454 73.79719068 40.703125 71.45703125 C40.10327839 69.12971134 40.10327839 69.12971134 38.8671875 67.0390625 C38.59003906 66.42160156 38.31289062 65.80414063 38.02734375 65.16796875 C39.00768879 63.15826141 40.01287763 61.16067006 41.02734375 59.16796875 C43.09942765 52.09724946 43.38427643 47.88183411 40.02734375 41.16796875 C39.85390089 39.63099813 39.73110411 38.08768811 39.65234375 36.54296875 C39.34466164 33.18695467 39.06849363 32.22583577 37.02734375 29.35546875 C33.87833881 27.05931932 30.88625995 25.72976486 27.296875 24.27734375 C24.90583679 23.10857464 23.28095633 21.78815674 21.33984375 19.98046875 C18.34515122 17.24226609 16.21391653 16.16796875 12.02734375 16.16796875 C10.6728431 16.79050406 9.3345327 17.45139408 8.02734375 18.16796875 C8.7028125 18.2659375 9.37828125 18.36390625 10.07421875 18.46484375 C17.40483333 19.6936751 17.40483333 19.6936751 20.65234375 22.16796875 C22.02734375 24.16796875 22.02734375 24.16796875 22.02734375 26.16796875 C20.27734375 27.67578125 20.27734375 27.67578125 18.02734375 29.29296875 C17.28484375 29.83179687 16.54234375 30.370625 15.77734375 30.92578125 C15.19984375 31.33570313 14.62234375 31.745625 14.02734375 32.16796875 C15.01734375 32.49796875 16.00734375 32.82796875 17.02734375 33.16796875 C17.02734375 32.50796875 17.02734375 31.84796875 17.02734375 31.16796875 C22.96673769 27.16796875 22.96673769 27.16796875 27.71484375 27.16796875 C31.44842444 28.29508745 32.60702271 29.16617428 35.02734375 32.16796875 C36.07421875 35.40234375 36.07421875 35.40234375 36.77734375 38.91796875 C37.0196875 40.0884375 37.26203125 41.25890625 37.51171875 42.46484375 C37.681875 43.356875 37.85203125 44.24890625 38.02734375 45.16796875 C36.85171875 45.47734375 35.67609375 45.78671875 34.46484375 46.10546875 C29.55885997 47.8831254 27.355383 51.10126965 24.47265625 55.3046875 C23.75722656 56.22701172 23.75722656 56.22701172 23.02734375 57.16796875 C22.36734375 57.16796875 21.70734375 57.16796875 21.02734375 57.16796875 C20.53234375 54.19796875 20.53234375 54.19796875 20.02734375 51.16796875 C19.36734375 51.16796875 18.70734375 51.16796875 18.02734375 51.16796875 C17.69734375 53.14796875 17.36734375 55.12796875 17.02734375 57.16796875 C13.44527313 58.47053988 12.17604348 58.23681122 8.65234375 56.60546875 C3.33378277 53.23782097 -2.59524563 49.19074231 -4.97265625 43.16796875 C-3.97529422 39.62179263 -1.30472736 36.96645408 1.02734375 34.16796875 C2.73484355 35.4485936 4.40107971 36.78564432 6.02734375 38.16796875 C6.02734375 38.82796875 6.02734375 39.48796875 6.02734375 40.16796875 C7.34734375 40.16796875 8.66734375 40.16796875 10.02734375 40.16796875 C5.48009287 33.88104991 1.38546036 31.09146666 -6.26171875 29.7734375 C-8.15944503 29.521972 -10.06592684 29.33821245 -11.97265625 29.16796875 C-11.97265625 27.84796875 -11.97265625 26.52796875 -11.97265625 25.16796875 C-12.30265625 24.83796875 -12.63265625 24.50796875 -12.97265625 24.16796875 C-13.30265625 23.17796875 -13.63265625 22.18796875 -13.97265625 21.16796875 C-13.64265625 20.83796875 -13.31265625 20.50796875 -12.97265625 20.16796875 C-13.96265625 19.50796875 -14.95265625 18.84796875 -15.97265625 18.16796875 C-17.95265625 19.15796875 -19.93265625 20.14796875 -21.97265625 21.16796875 C-22.30265625 19.84796875 -22.63265625 18.52796875 -22.97265625 17.16796875 C-23.90078125 17.69390625 -23.90078125 17.69390625 -24.84765625 18.23046875 C-25.89953125 18.69453125 -25.89953125 18.69453125 -26.97265625 19.16796875 C-27.63265625 18.83796875 -28.29265625 18.50796875 -28.97265625 18.16796875 C-28.64265625 16.84796875 -28.31265625 15.52796875 -27.97265625 14.16796875 C-27.31265625 14.16796875 -26.65265625 14.16796875 -25.97265625 14.16796875 C-25.74578125 13.30171875 -25.51890625 12.43546875 -25.28515625 11.54296875 C-23.35814021 6.58778464 -20.66621807 3.37765577 -16.34765625 0.29296875 C-11.13557315 -1.44439228 -5.19852486 -2.19264514 0 0 Z " fill="#F5F5F5" transform="translate(125.97265625,7.83203125)"/>
<path d="M0 0 C1.24295693 0.89264548 2.47624996 1.79891022 3.69921875 2.71875 C7.91394538 5.09148499 13.0538256 5.18096994 17.80859375 4.90625 C18.79859375 4.24625 19.78859375 3.58625 20.80859375 2.90625 C28.46401811 2.00561184 35.56747671 2.08637744 41.80859375 6.90625 C49.0176096 13.11675681 53.78861413 18.84631113 56.80859375 27.90625 C56.87662342 29.63420352 56.8935502 31.36460365 56.87109375 33.09375 C56.86207031 33.99480469 56.85304687 34.89585938 56.84375 35.82421875 C56.82634766 36.85482422 56.82634766 36.85482422 56.80859375 37.90625 C57.65421875 38.1125 58.49984375 38.31875 59.37109375 38.53125 C63.60955049 40.2266327 66.70772663 42.56562511 69.80859375 45.90625 C70.08960938 46.62039062 70.370625 47.33453125 70.66015625 48.0703125 C71.03914062 48.67617188 71.418125 49.28203125 71.80859375 49.90625 C74.42315204 50.46402129 74.42315204 50.46402129 77.43359375 50.40625 C84.4499834 50.77641924 89.12487143 52.29315195 94.18359375 57.21875 C96.13384552 60.44416639 96.94728505 63.24568804 97.80859375 66.90625 C98.50984375 66.93203125 99.21109375 66.9578125 99.93359375 66.984375 C107.80793502 67.45512366 114.18122121 68.73651939 119.68359375 74.71875 C123.72239214 80.77694758 124.36885399 86.80527718 123.80859375 93.90625 C123.47859375 94.9375 123.14859375 95.96875 122.80859375 97.03125 C122.48028927 99.94871287 122.48028927 99.94871287 124.41796875 101.6171875 C125.86479825 102.82639901 127.3235705 104.02144109 128.79296875 105.203125 C132.31138205 108.17604787 133.57278747 110.93920772 134.1171875 115.48046875 C134.40453885 121.86315169 133.7419899 125.83423917 129.80859375 130.90625 C123.86424707 135.51615151 119.12652624 136.4614035 111.80859375 135.90625 C110.79796875 135.555625 109.78734375 135.205 108.74609375 134.84375 C103.14240441 133.05533851 97.98357125 134.7916323 92.54296875 136.45703125 C91.65319336 136.72813721 90.76341797 136.99924316 89.84667969 137.27856445 C89.17411133 137.48570068 88.50154297 137.69283691 87.80859375 137.90625 C88.712146 138.28958496 89.61569824 138.67291992 90.54663086 139.06787109 C93.8909702 140.48877627 97.23154758 141.91834216 100.57104492 143.35058594 C102.01827109 143.96982785 103.46651327 144.58670074 104.91577148 145.20117188 C106.99603151 146.0836633 109.07251589 146.97454703 111.1484375 147.8671875 C111.79948959 148.14122406 112.45054169 148.41526062 113.12132263 148.69760132 C117.69472204 150.67850659 117.69472204 150.67850659 118.80859375 152.90625 C113.46751451 152.31144799 109.17425297 150.5033399 104.33984375 148.30859375 C102.70061323 147.58247367 101.0612874 146.85656872 99.421875 146.13085938 C96.85941839 144.9868265 94.29862776 143.83926331 91.73974609 142.68725586 C89.25639656 141.57234581 86.7673299 140.47108467 84.27734375 139.37109375 C83.51780396 139.02425034 82.75826416 138.67740692 81.97570801 138.3200531 C77.76044423 136.4659977 74.51035871 135.40078373 69.80859375 135.90625 C69.14859375 136.23625 68.48859375 136.56625 67.80859375 136.90625 C68.37368652 137.19346924 68.9387793 137.48068848 69.52099609 137.77661133 C72.0793789 139.08264443 74.6314747 140.40052184 77.18359375 141.71875 C78.07304687 142.17056641 78.9625 142.62238281 79.87890625 143.08789062 C80.7296875 143.52939453 81.58046875 143.97089844 82.45703125 144.42578125 C83.63531494 145.03063354 83.63531494 145.03063354 84.83740234 145.64770508 C86.80859375 146.90625 86.80859375 146.90625 88.80859375 149.90625 C83.63418538 149.2660088 79.26208977 146.95352203 74.62109375 144.71875 C73.77482422 144.31599854 72.92855469 143.91324707 72.05664062 143.49829102 C66.71278246 140.92237476 61.58095532 138.17053825 56.62109375 134.90234375 C54.71510235 133.66543565 54.71510235 133.66543565 51.80859375 133.90625 C62.20359375 140.83625 62.20359375 140.83625 72.80859375 147.90625 C71.48859375 148.23625 70.16859375 148.56625 68.80859375 148.90625 C66.26118469 147.26036871 63.9784867 145.60337151 61.62109375 143.71875 C54.47584847 138.24363143 47.99539686 133.84848622 38.80859375 132.90625 C38.56109375 133.525 38.31359375 134.14375 38.05859375 134.78125 C36.51774845 137.40068701 35.71879029 138.04105643 32.80859375 138.90625 C26.76692708 138.38541667 26.76692708 138.38541667 23.80859375 136.90625 C21.43614647 136.72353095 19.0602493 136.58451155 16.68359375 136.46875 C12.4409678 136.25929947 8.51826015 135.99913341 4.49609375 134.53125 C-0.36851994 133.7067392 -2.51143368 135.25819791 -6.7109375 137.58984375 C-16.07942647 142.56178199 -29.78762827 142.47645471 -39.81640625 139.59375 C-42.60781708 138.61956636 -44.94046499 137.50397771 -47.56640625 136.09375 C-48.43265625 135.701875 -49.29890625 135.31 -50.19140625 134.90625 C-51.53036485 135.56154542 -52.86292102 136.22997401 -54.19140625 136.90625 C-61.72082353 137.94064279 -68.60102505 136.71245946 -75.19140625 132.90625 C-75.77792969 132.21144531 -76.36445312 131.51664063 -76.96875 130.80078125 C-80.16599479 128.07553745 -83.30627052 128.35907759 -87.31640625 128.34375 C-96.55427005 128.0505623 -104.81672273 127.02184121 -112.19140625 120.90625 C-115.86285388 116.60179416 -116.32402487 111.40550203 -116.19140625 105.90625 C-114.89418761 101.86198011 -113.3316782 99.91332181 -110.00390625 97.46875 C-108.61171875 96.2003125 -108.61171875 96.2003125 -107.19140625 94.90625 C-107.02463343 91.48968976 -107.02463343 91.48968976 -107.19140625 87.90625 C-104.68161386 81.8409184 -101.20978949 78.58795259 -95.19140625 75.90625 C-94.20140625 75.90625 -93.21140625 75.90625 -92.19140625 75.90625 C-92.68640625 74.91625 -92.68640625 74.91625 -93.19140625 73.90625 C-93.59584848 68.04183762 -93.23676334 63.05258515 -90.19140625 57.90625 C-86.46271022 53.84258837 -83.06312594 51.04983598 -77.37890625 50.765625 C-75.25423779 50.69271971 -73.1291869 50.63021521 -71.00390625 50.578125 C-68.02352473 50.16294717 -68.02352473 50.16294717 -66.3125 47.6484375 C-65.14895968 44.80242597 -64.97630422 43.29954119 -65.25390625 40.28125 C-65.43352867 33.59530428 -63.94669395 27.03586409 -59.4375 21.9140625 C-55.43585156 18.42201856 -52.75121007 16.76514114 -47.37890625 16.78125 C-46.48171875 16.78382812 -45.58453125 16.78640625 -44.66015625 16.7890625 C-42.19140625 16.90625 -42.19140625 16.90625 -39.37890625 17.65625 C-36.98981249 18.16613724 -36.98981249 18.16613724 -34.62890625 16.21875 C-33.82453125 15.455625 -33.02015625 14.6925 -32.19140625 13.90625 C-31.53140625 13.308125 -30.87140625 12.71 -30.19140625 12.09375 C-28.48848846 10.23118366 -27.2896593 8.51401893 -25.94140625 6.40625 C-20.35587149 -1.41686345 -8.79179256 -4.38806046 0 0 Z M-23.50390625 8.28125 C-25.34409579 10.87308426 -25.34409579 10.87308426 -26.12890625 14.09375 C-27.19140625 16.90625 -27.19140625 16.90625 -29.62890625 18.15625 C-30.47453125 18.40375 -31.32015625 18.65125 -32.19140625 18.90625 C-33.18140625 19.56625 -34.17140625 20.22625 -35.19140625 20.90625 C-38.52527173 20.95714871 -41.79740382 20.85464093 -45.12304688 20.65234375 C-51.61921426 20.44573038 -54.87217888 22.77506809 -59.50390625 27.03125 C-62.55865031 32.23562877 -62.6068046 37.82925825 -61.44140625 43.65625 C-61.19140625 46.90625 -61.19140625 46.90625 -62.87890625 50.28125 C-66.30783043 53.92089019 -70.44757109 53.47374993 -75.17578125 53.6484375 C-79.37925966 54.00780223 -82.91008437 55.2179381 -86.19140625 57.90625 C-89.43635785 62.0070948 -89.56696016 65.67986956 -89.37890625 70.71875 C-89.36537109 71.41162109 -89.35183594 72.10449219 -89.33789062 72.81835938 C-89.3027947 74.51466265 -89.24899568 76.21056136 -89.19140625 77.90625 C-89.7946875 78.06480469 -90.39796875 78.22335938 -91.01953125 78.38671875 C-94.81752036 79.49548654 -97.64820566 80.4445295 -100.69140625 83.03125 C-102.19018296 85.90390535 -102.38902124 87.2654919 -102.56640625 90.40625 C-102.82797846 94.36252971 -102.94822494 94.67892834 -106.06640625 97.59375 C-107.09765625 98.356875 -108.12890625 99.12 -109.19140625 99.90625 C-111.55025065 103.33037896 -112.44070499 105.81389159 -112.12890625 109.90625 C-111.12802039 115.17090963 -109.2696445 118.39101275 -104.85546875 121.609375 C-97.84593374 125.71907498 -92.07452582 126.4905003 -84.15551758 125.77294922 C-80.18205351 125.49795288 -77.89161003 125.74261725 -74.890625 128.2890625 C-73.99988281 129.15273437 -73.10914063 130.01640625 -72.19140625 130.90625 C-66.93933839 133.78002298 -62.1041368 134.78857607 -56.19140625 133.90625 C-55.20140625 133.24625 -54.21140625 132.58625 -53.19140625 131.90625 C-53.62710938 131.39578125 -54.0628125 130.8853125 -54.51171875 130.359375 C-61.57462298 121.73712827 -67.7877262 111.34673058 -68.81640625 100.03125 C-68.89117187 99.25007813 -68.9659375 98.46890625 -69.04296875 97.6640625 C-69.09195313 97.08398438 -69.1409375 96.50390625 -69.19140625 95.90625 C-68.20140625 95.90625 -67.21140625 95.90625 -66.19140625 95.90625 C-66.0934375 96.65648438 -65.99546875 97.40671875 -65.89453125 98.1796875 C-63.82326873 112.35712233 -58.63792697 123.1863616 -47.390625 132.3984375 C-38.31419763 138.62135218 -27.83207528 139.10723438 -17.19140625 137.90625 C-7.89638668 136.02046572 -1.6219035 131.23950968 4.18359375 123.90625 C9.12175866 114.78963785 9.11262678 103.46346152 7.12109375 93.44921875 C3.77401643 82.5851636 -2.41087562 73.5084123 -12.3046875 67.65625 C-15.83785697 65.84641554 -19.47403654 64.30026364 -23.19140625 62.90625 C-21.87140625 62.24625 -20.55140625 61.58625 -19.19140625 60.90625 C-20.94075523 58.82291921 -20.94075523 58.82291921 -23.19140625 56.90625 C-24.51140625 56.90625 -25.83140625 56.90625 -27.19140625 56.90625 C-27.19140625 56.24625 -27.19140625 55.58625 -27.19140625 54.90625 C-23.89140625 55.23625 -20.59140625 55.56625 -17.19140625 55.90625 C-16.20140625 52.93625 -16.20140625 52.93625 -15.19140625 49.90625 C-15.52140625 49.57625 -15.85140625 49.24625 -16.19140625 48.90625 C-12.463327 47.77161718 -10.37784419 47.3926323 -6.74609375 48.96484375 C-2.63728803 51.38363611 1.03615438 54.00803093 4.55859375 57.21875 C7.50362398 59.87832813 9.74130033 60.81166178 13.80859375 60.90625 C14.46859375 60.57625 15.12859375 60.24625 15.80859375 59.90625 C16.46631803 56.87690509 16.46631803 56.87690509 16.80859375 53.90625 C17.46859375 53.90625 18.12859375 53.90625 18.80859375 53.90625 C19.13859375 55.88625 19.46859375 57.86625 19.80859375 59.90625 C20.46859375 59.90625 21.12859375 59.90625 21.80859375 59.90625 C22.89665224 58.50353676 23.92955466 57.0577791 24.93359375 55.59375 C28.46112352 50.87057329 31.16627374 49.39107106 36.80859375 47.90625 C36.41050264 45.81928753 35.98935095 43.7367156 35.55859375 41.65625 C35.3265625 40.49609375 35.09453125 39.3359375 34.85546875 38.140625 C33.72009107 34.63281636 32.68675589 33.15732653 29.80859375 30.90625 C26.45044573 29.89246947 24.10781391 29.36280188 20.80078125 30.74609375 C19.0889057 31.71985292 17.44212652 32.80611568 15.80859375 33.90625 C15.80859375 34.56625 15.80859375 35.22625 15.80859375 35.90625 C14.32359375 35.41125 14.32359375 35.41125 12.80859375 34.90625 C15.44859375 32.92625 18.08859375 30.94625 20.80859375 28.90625 C18.64120926 24.47138824 18.64120926 24.47138824 14.80859375 21.90625 C12.12919225 21.37242288 9.54062384 21.13391917 6.80859375 20.90625 C9.18360272 19.35335952 10.70011734 18.90871537 13.55859375 18.84375 C17.59607473 20.1636957 19.67243163 22.33002292 22.7265625 25.203125 C24.82396608 26.91882474 26.43941812 27.70309895 28.99609375 28.53125 C33.0063066 29.85746212 35.28425748 31.38747823 37.80859375 34.90625 C38.2643236 37.17212176 38.43703178 39.3486798 38.5546875 41.65625 C38.71034556 44.19363856 38.71034556 44.19363856 40.49609375 47.28125 C42.38445865 52.496734 41.33064283 56.66449935 39.80859375 61.90625 C39.21060908 63.14878371 38.58883862 64.38043641 37.93359375 65.59375 C36.51376918 68.69319878 36.51376918 68.69319878 37.47265625 70.96875 C38.52169021 73.087929 38.52169021 73.087929 39.73046875 75.01171875 C40.80859375 76.90625 40.80859375 76.90625 41.296875 79.1015625 C41.46574219 79.69710937 41.63460937 80.29265625 41.80859375 80.90625 C42.61296875 81.133125 43.41734375 81.36 44.24609375 81.59375 C46.80859375 82.90625 46.80859375 82.90625 47.58203125 85.02734375 C48.07468665 87.31569237 48.4889632 89.58773588 48.80859375 91.90625 C47.48859375 91.90625 46.16859375 91.90625 44.80859375 91.90625 C44.47859375 89.59625 44.14859375 87.28625 43.80859375 84.90625 C42.81859375 84.90625 41.82859375 84.90625 40.80859375 84.90625 C40.14859375 86.55625 39.48859375 88.20625 38.80859375 89.90625 C41.28359375 92.38125 41.28359375 92.38125 43.80859375 94.90625 C42.65359375 94.37 41.49859375 93.83375 40.30859375 93.28125 C35.50618254 91.43746712 32.5960319 92.28194063 27.80859375 93.90625 C27.80859375 93.24625 27.80859375 92.58625 27.80859375 91.90625 C28.71609375 91.679375 29.62359375 91.4525 30.55859375 91.21875 C34.45514615 89.6451423 35.77548197 88.58149052 37.80859375 84.90625 C38.65137955 80.24512853 38.23697281 76.83154877 36.24609375 72.53125 C33.22640204 69.27927431 31.10328853 68.05150194 26.80859375 66.90625 C23.9362961 67.25334026 21.57845139 67.98296412 18.80859375 68.90625 C18.47859375 67.25625 18.14859375 65.60625 17.80859375 63.90625 C16.15859375 63.57625 14.50859375 63.24625 12.80859375 62.90625 C12.55464844 63.44894531 12.30070312 63.99164063 12.0390625 64.55078125 C11.52279297 65.62392578 11.52279297 65.62392578 10.99609375 66.71875 C10.65964844 67.42644531 10.32320313 68.13414063 9.9765625 68.86328125 C7.9089318 72.47990619 5.58425457 74.21371239 1.80859375 75.90625 C2.20691406 76.52371094 2.60523438 77.14117187 3.015625 77.77734375 C10.7109888 90.07869173 13.7232482 102.78689273 10.62109375 117.28515625 C9.23084116 121.77005765 7.12276466 125.83436912 4.80859375 129.90625 C10.41926359 132.34106899 15.18237007 133.30958517 21.29296875 133.59765625 C23.9043659 133.91799845 25.49710154 134.71415968 27.80859375 135.90625 C31.0249292 135.7093315 33.05270696 135.57814937 35.49609375 133.40625 C35.92921875 132.91125 36.36234375 132.41625 36.80859375 131.90625 C37.79859375 131.57625 38.78859375 131.24625 39.80859375 130.90625 C39.47859375 129.91625 39.14859375 128.92625 38.80859375 127.90625 C39.46859375 127.24625 40.12859375 126.58625 40.80859375 125.90625 C39.81859375 125.24625 38.82859375 124.58625 37.80859375 123.90625 C42.34750738 125.30283881 46.44580007 127.13794166 50.66015625 129.296875 C53.19275988 130.27608899 53.19275988 130.27608899 56.80859375 127.90625 C51.52859375 125.26625 46.24859375 122.62625 40.80859375 119.90625 C49.51395089 122.71875 49.51395089 122.71875 53.49609375 124.65625 C57.18495494 126.04827309 59.0714817 126.06297516 62.80859375 124.90625 C63.13859375 124.24625 63.46859375 123.58625 63.80859375 122.90625 C55.88859375 120.59625 47.96859375 118.28625 39.80859375 115.90625 C48.30859375 117.84375 48.30859375 117.84375 50.93554688 118.44897461 C55.8837497 119.56209594 60.76614395 120.35690054 65.80859375 120.90625 C66.79859375 119.25625 67.78859375 117.60625 68.80859375 115.90625 C65.10174725 115.23113531 61.39290631 114.56766959 57.68359375 113.90625 C56.11351562 113.62007812 56.11351562 113.62007812 54.51171875 113.328125 C53.49335938 113.14765625 52.475 112.9671875 51.42578125 112.78125 C50.49362793 112.61367187 49.56147461 112.44609375 48.60107422 112.2734375 C45.64016315 111.8841028 42.79157613 111.84466585 39.80859375 111.90625 C39.80859375 111.24625 39.80859375 110.58625 39.80859375 109.90625 C49.70859375 111.55625 59.60859375 113.20625 69.80859375 114.90625 C73.84063411 106.84216927 73.57233105 97.40067788 70.80859375 88.90625 C66.37628506 78.24685974 60.62359199 71.43875964 50 66.63671875 C47.61670567 65.68002046 45.22866089 64.76514648 42.80859375 63.90625 C50.50693331 63.2647217 55.41986115 64.6739437 61.6171875 69.23828125 C69.01771729 75.74876959 74.1827704 86.71945104 75.671875 96.390625 C76.0097068 102.60673005 75.47368125 108.9005498 73.80859375 114.90625 C75.45859375 115.56625 77.10859375 116.22625 78.80859375 116.90625 C77.88046875 116.82375 76.95234375 116.74125 75.99609375 116.65625 C72.74480918 116.56400187 72.74480918 116.56400187 70.93359375 118.78125 C69.65263118 120.8001088 69.65263118 120.8001088 69.80859375 122.90625 C73.39029855 123.74668997 76.97420018 124.57735899 80.55859375 125.40625 C81.574375 125.64472656 82.59015625 125.88320312 83.63671875 126.12890625 C84.61640625 126.35449219 85.59609375 126.58007812 86.60546875 126.8125 C87.50620117 127.02197266 88.40693359 127.23144531 89.33496094 127.44726562 C92.04476299 128.02787449 92.04476299 128.02787449 95.80859375 127.90625 C95.80859375 128.89625 95.80859375 129.88625 95.80859375 130.90625 C95.04192383 130.68372559 94.27525391 130.46120117 93.48535156 130.23193359 C90.01387064 129.23339644 86.53651092 128.25712127 83.05859375 127.28125 C81.85203125 126.930625 80.64546875 126.58 79.40234375 126.21875 C78.2421875 125.89648438 77.08203125 125.57421875 75.88671875 125.2421875 C74.8184082 124.93845215 73.75009766 124.6347168 72.64941406 124.32177734 C69.86442147 123.70405811 69.86442147 123.70405811 67.49121094 124.63525391 C65.49918137 125.89050552 65.49918137 125.89050552 64.80859375 128.90625 C69.79640154 130.66860875 74.55260405 132.15539433 79.80859375 132.90625 C80.79859375 133.23625 81.78859375 133.56625 82.80859375 133.90625 C89.51170625 134.56681521 94.26806943 134.09597232 100.10546875 130.73828125 C101.80859375 129.90625 101.80859375 129.90625 104.43359375 130.03125 C106.13613729 130.65850288 107.82240326 131.33063538 109.49609375 132.03125 C114.11366169 133.25098493 118.16938373 132.98279456 122.80859375 131.90625 C126.4312356 129.71757055 128.20308931 127.76644112 129.80859375 123.90625 C130.80591103 117.08738301 129.71527281 111.57156272 125.80859375 105.90625 C123.35101953 102.9447532 123.35101953 102.9447532 120.80859375 100.90625 C120.14859375 100.90625 119.48859375 100.90625 118.80859375 100.90625 C118.84339844 99.60429688 118.87820312 98.30234375 118.9140625 96.9609375 C118.94221276 95.23438796 118.96951159 93.50782439 118.99609375 91.78125 C119.02123047 90.9253125 119.04636719 90.069375 119.07226562 89.1875 C119.14111761 83.22032796 118.49877738 78.85564404 114.30859375 74.26171875 C110.43865174 71.24840453 107.70561987 69.76270066 102.80859375 69.78125 C102.12796875 69.77867188 101.44734375 69.77609375 100.74609375 69.7734375 C98.58984594 69.83993874 98.58984594 69.83993874 95.80859375 70.90625 C95.67324219 70.33777344 95.53789062 69.76929687 95.3984375 69.18359375 C93.66286694 62.95840353 91.05472255 58.77125509 85.80859375 54.90625 C81.6868834 52.72993095 78.58711834 52.81751014 73.99609375 53.28125 C72.83464844 53.39210937 71.67320312 53.50296875 70.4765625 53.6171875 C69.59613281 53.71257813 68.71570313 53.80796875 67.80859375 53.90625 C67.51210937 52.97167969 67.215625 52.03710938 66.91015625 51.07421875 C65.66462271 47.49220563 64.52811432 45.55420423 61.80859375 42.90625 C60.45822391 42.61707989 59.10350947 42.34779845 57.74609375 42.09375 C55.6328125 41.42578125 55.6328125 41.42578125 53.80859375 39.90625 C52.59987391 35.93603541 52.01834117 32.04065626 51.44140625 27.94140625 C50.38322634 20.49795506 47.66172125 14.76006305 41.80859375 9.90625 C35.12664949 5.34297099 28.08741788 4.99199582 20.21484375 6.35546875 C19.37953125 6.53722656 18.54421875 6.71898437 17.68359375 6.90625 C6.92831791 9.21576848 6.92831791 9.21576848 3.05078125 6.8203125 C1.57447751 5.58649343 0.18535968 4.25023579 -1.19140625 2.90625 C-9.16914872 -1.08262123 -17.76537996 2.3876284 -23.50390625 8.28125 Z " fill="#010101" transform="translate(127.19140625,5.09375)"/>
<path d="M0 0 C1.65 0.33 3.3 0.66 5 1 C6 4 6 4 6 6 C6.56847656 5.80921875 7.13695312 5.6184375 7.72265625 5.421875 C11.91041374 4.21938036 14.90923335 3.43100658 18.875 5.5625 C22.61739211 8.48156584 24.6148699 10.35704471 25.3125 15.14453125 C25.52186338 19.0897225 25.31252849 21.43504465 23.375 24.9375 C20.68312406 27.27518174 18.4367294 28.14081765 15 29 C15 29.66 15 30.32 15 31 C16.155 30.608125 17.31 30.21625 18.5 29.8125 C23.48735319 28.52113176 26.41714169 29.87224436 31 32 C28.525 29.03 28.525 29.03 26 26 C26.66 24.68 27.32 23.36 28 22 C28.99 22 29.98 22 31 22 C31.495 25.465 31.495 25.465 32 29 C33.32 29 34.64 29 36 29 C35.57362522 25.90719188 35.07227625 22.9392344 34 20 C31.52869082 18.84478498 31.52869082 18.84478498 29 18 C27.39260777 13.94324817 26.7363237 10.35065901 27 6 C28.98 5.67 30.96 5.34 33 5 C33 4.34 33 3.68 33 3 C42.82391007 5.59242071 49.40659297 9.98544556 54.75 18.7265625 C59.42249475 27.22466234 61.45141726 37.08446937 59.125 46.6875 C58 50 58 50 57 52 C47.1 50.35 37.2 48.7 27 47 C27 47.66 27 48.32 27 49 C27.66902344 49.03738281 28.33804688 49.07476562 29.02734375 49.11328125 C38.15511467 49.73813537 47.02292051 51.30882033 56 53 C55.01 54.65 54.02 56.3 53 58 C47.05384661 57.35219659 41.32536219 56.27960714 35.5 54.9375 C31.2925 53.9784375 31.2925 53.9784375 27 53 C38.88 56.465 38.88 56.465 51 60 C50.01 60.99 49.02 61.98 48 63 C43.52123295 62.75604481 39.8221392 61.23312922 35.75 59.4375 C32.00294995 57.63197145 32.00294995 57.63197145 28 57 C33.28 59.64 38.56 62.28 44 65 C42.02 65.99 42.02 65.99 40 67 C36.8359375 65.8828125 36.8359375 65.8828125 33.375 64.125 C29.36880075 61.8571021 29.36880075 61.8571021 25 61 C25.99 61.99 26.98 62.98 28 64 C27.01 64.495 27.01 64.495 26 65 C26.33 65.99 26.66 66.98 27 68 C26.236875 68.45375 25.47375 68.9075 24.6875 69.375 C22.76367186 70.53824492 20.87058776 71.7529415 19 73 C12.43396226 72.43396226 12.43396226 72.43396226 11 71 C9.31544579 70.84013018 7.62680656 70.72259405 5.9375 70.625 C0.7636411 70.21298252 -3.25459924 69.05932486 -8 67 C-7.66226563 66.40574219 -7.32453125 65.81148438 -6.9765625 65.19921875 C-0.75776731 53.6423248 0.55680139 41.78419541 -2.7890625 28.98046875 C-4.86113635 22.95797769 -7.71836181 17.44698141 -11 12 C-10.2575 11.773125 -9.515 11.54625 -8.75 11.3125 C-4.52033196 9.2937948 -2.62596139 6.40841313 -0.75 2.1875 C-0.37875 1.1046875 -0.37875 1.1046875 0 0 Z " fill="#FBF7F7" transform="translate(140,68)"/>
<path d="M0 0 C1.65 0.33 3.3 0.66 5 1 C6 4 6 4 6 6 C6.56847656 5.80921875 7.13695312 5.6184375 7.72265625 5.421875 C11.91041374 4.21938036 14.90923335 3.43100658 18.875 5.5625 C22.61739211 8.48156584 24.6148699 10.35704471 25.3125 15.14453125 C25.52186338 19.0897225 25.31252849 21.43504465 23.375 24.9375 C20.68312406 27.27518174 18.4367294 28.14081765 15 29 C15 29.66 15 30.32 15 31 C17.64 30.34 20.28 29.68 23 29 C23.99 31.64 24.98 34.28 26 37 C25.67 37.33 25.34 37.66 25 38 C25.33 38.99 25.66 39.98 26 41 C25.1875 43.1640625 25.1875 43.1640625 24 45.625 C21.70792394 50.95231672 22.01452994 54.35594419 23 60 C22 61 22 61 18.125 61.25 C14.29674306 61.2225573 14.29674306 61.2225573 12 59.5 C11.67 59.005 11.34 58.51 11 58 C10.01 58.495 10.01 58.495 9 59 C6 55.25 6 55.25 6 53 C5.195625 53.185625 4.39125 53.37125 3.5625 53.5625 C2.716875 53.706875 1.87125 53.85125 1 54 C-0.7705247 52.2294753 -0.29769674 49.59268673 -0.4375 47.1875 C-1.39924411 34.39212184 -3.86641902 25.16035036 -10 14 C-10.33 13.34 -10.66 12.68 -11 12 C-10.2575 11.773125 -9.515 11.54625 -8.75 11.3125 C-4.52033196 9.2937948 -2.62596139 6.40841313 -0.75 2.1875 C-0.37875 1.1046875 -0.37875 1.1046875 0 0 Z " fill="#FDFDFD" transform="translate(140,68)"/>
<path d="M0 0 C9.82391007 2.59242071 16.40659297 6.98544556 21.75 15.7265625 C26.42249475 24.22466234 28.45141726 34.08446937 26.125 43.6875 C25 47 25 47 24 49 C21.72735496 48.74481529 19.45687295 48.47030939 17.1875 48.1875 C15.92292969 48.03667969 14.65835938 47.88585937 13.35546875 47.73046875 C8.7811761 46.73466814 8.7811761 46.73466814 7 44 C7 43.01 7 42.02 7 41 C6.525625 40.21625 6.05125 39.4325 5.5625 38.625 C3.31516995 34.84948552 2.98156166 31.99567047 3.0625 27.625 C2.99397811 23.65073034 2.51496789 20.67920774 1 17 C0.175 16.67 -0.65 16.34 -1.5 16 C-2.7375 15.505 -2.7375 15.505 -4 15 C-5.60739223 10.94324817 -6.2636763 7.35065901 -6 3 C-4.02 2.67 -2.04 2.34 0 2 C0 1.34 0 0.68 0 0 Z " fill="#FAECEC" transform="translate(173,71)"/>
<path d="M0 0 C8.01421095 0.68693237 13.10277503 4.35777721 18.13671875 10.3203125 C26.17165978 21.87580422 27.39474881 35.14854773 25.64453125 48.765625 C23.67781082 56.1045281 17.96790662 62.59520811 11.55078125 66.484375 C5.15868522 69.40043864 -0.49119692 70.16069849 -7.5 70.125 C-8.25925781 70.12886719 -9.01851562 70.13273437 -9.80078125 70.13671875 C-13.37014456 70.13046768 -16.56731602 69.96340936 -20 69 C-19.67 67.68 -19.34 66.36 -19 65 C-18.38125 65.165 -17.7625 65.33 -17.125 65.5 C-13.24048896 66.4140026 -10.73110328 65.29153575 -7 64 C-1.22222222 62 -1.22222222 62 1 62 C1.99 61.505 1.99 61.505 3 61 C5 60 5 60 7 60 C7.33 59.34 7.66 58.68 8 58 C8.99 57.34 9.98 56.68 11 56 C11 55.01 11 54.02 11 53 C12.32 53.33 13.64 53.66 15 54 C14.67 53.01 14.34 52.02 14 51 C13.75606285 46.52781884 14.03614442 43.92771116 16 40 C16.38247336 35.30457971 16.38247336 35.30457971 14.9375 30.9375 C13.58362096 28.13948332 14.49844341 26.00933955 15 23 C14.24174796 20.9001177 14.24174796 20.9001177 13 19 C12.32033324 17.33859237 11.65061095 15.67299959 11 14 C10.01 14 9.02 14 8 14 C5.8125 11 5.8125 11 4 8 C3.01 8.66 2.02 9.32 1 10 C1 10.99 1 11.98 1 13 C0.01 12.34 -0.98 11.68 -2 11 C-2.36328125 8.90625 -2.36328125 8.90625 -2.3125 6.5 C-2.30863281 5.7059375 -2.30476563 4.911875 -2.30078125 4.09375 C-2 2 -2 2 0 0 Z " fill="#F9F0F0" transform="translate(109,73)"/>
<path d="M0 0 C0.66 0.66 1.32 1.32 2 2 C1.1875 4.4375 1.1875 4.4375 0 7 C-0.99 7.33 -1.98 7.66 -3 8 C-3 8.99 -3 9.98 -3 11 C-4.66666667 12.66666667 -6.33333333 14.33333333 -8 16 C-8 16.99 -8 17.98 -8 19 C-7.34 18.67 -6.68 18.34 -6 18 C-5.67 18.99 -5.34 19.98 -5 21 C-6.32 22.32 -7.64 23.64 -9 25 C-9.66 24.34 -10.32 23.68 -11 23 C-11 23.99 -11 24.98 -11 26 C-10.34 26 -9.68 26 -9 26 C-6.07634723 29.82323824 -6 32.32238057 -6 37 C-4.62493901 38.87890434 -4.62493901 38.87890434 -3 40 C-2.01 39.505 -2.01 39.505 -1 39 C-0.319375 40.3921875 -0.319375 40.3921875 0.375 41.8125 C1.9421633 45.03921389 1.9421633 45.03921389 4 48 C-4.5628561 49.02299608 -10.85026005 46.71601606 -18 42 C-21.38549734 38.37830517 -22.77193923 34.90239964 -23.1640625 30.01953125 C-22.87097159 26.41172169 -21.28623935 23.74918501 -19 21 C-18.113125 20.38125 -17.22625 19.7625 -16.3125 19.125 C-13.19976233 16.26464646 -13.55063813 14.24301521 -13.27734375 10.18359375 C-12.83566998 6.70619043 -11.64765823 5.2505095 -9 3 C-6.05872052 1.74742064 -3.08972449 0.81204297 0 0 Z " fill="#F5F5F5" transform="translate(38,83)"/>
<path d="M0 0 C0.66 0.33 1.32 0.66 2 1 C0.40740741 5.77777778 0.40740741 5.77777778 -1 8 C-3.13002316 8.79875868 -4.73304965 9 -7 9 C-7.6496875 10.4540625 -7.6496875 10.4540625 -8.3125 11.9375 C-10 15 -10 15 -13 16 C-13.99 15.67 -14.98 15.34 -16 15 C-16.33 16.98 -16.66 18.96 -17 21 C-17.66 20.67 -18.32 20.34 -19 20 C-19.33 21.65 -19.66 23.3 -20 25 C-20.99 25 -21.98 25 -23 25 C-24.84942747 23.15057253 -24.2591876 20.29573569 -24.3125 17.8125 C-24.26703613 13.66164901 -24.09600352 11.22272817 -22.4375 7.375 C-16.79184823 1.87410853 -11.05847317 1.60602466 -3.4765625 1.2109375 C-1.05807052 1.27291929 -1.05807052 1.27291929 0 0 Z " fill="#F5F5F5" transform="translate(62,57)"/>
<path d="M0 0 C1.22589844 0.01353516 1.22589844 0.01353516 2.4765625 0.02734375 C3.41628906 0.04474609 3.41628906 0.04474609 4.375 0.0625 C6.21191257 3.84437881 6.53337626 6.00818308 5.375 10.0625 C4.776875 9.711875 4.17875 9.36125 3.5625 9 C1.26686786 7.72945302 1.26686786 7.72945302 -1.625 9.0625 C-1.295 10.0525 -0.965 11.0425 -0.625 12.0625 C-1.388125 12.124375 -2.15125 12.18625 -2.9375 12.25 C-5.85551809 12.83185262 -5.85551809 12.83185262 -7.4375 15.625 C-7.829375 16.429375 -8.22125 17.23375 -8.625 18.0625 C-9.945 17.4025 -11.265 16.7425 -12.625 16.0625 C-12.82993693 19.75136475 -12.38837611 21.84693181 -10.625 25.0625 C-9.8125 27.0625 -9.8125 27.0625 -9.625 29.0625 C-11.0625 31.3125 -11.0625 31.3125 -12.625 33.0625 C-15.10643902 29.34034147 -15.18209536 26.14327426 -15.4375 21.8125 C-15.50130859 21.07386719 -15.56511719 20.33523437 -15.63085938 19.57421875 C-16.0029023 13.63201195 -15.17008749 8.95081811 -11.08984375 4.3203125 C-7.04200239 1.31807722 -5.0079182 -0.07154169 0 0 Z " fill="#F4F4F4" transform="translate(80.625,25.9375)"/>
<path d="M0 0 C4.90543378 1.55698281 8.37950236 4.43323673 12.3125 7.625 C12.95767578 8.140625 13.60285156 8.65625 14.26757812 9.1875 C15.8493804 10.45294182 17.42529063 11.72574262 19 13 C18.67 14.98 18.34 16.96 18 19 C17.67 18.34 17.34 17.68 17 17 C15.35 17 13.7 17 12 17 C12 16.34 12 15.68 12 15 C11.01 15 10.02 15 9 15 C9 16.65 9 18.3 9 20 C4.53828494 18.42527704 -0.79688514 16.40622971 -3 12 C-3.3793347 6.97381517 -2.98263247 4.10111964 0 0 Z " fill="#FFFFFF" transform="translate(116,55)"/>
<path d="M0 0 C5.80512153 0.23871528 5.80512153 0.23871528 8.02734375 2.4609375 C7.71175721 4.85939519 7.16669308 7.04288951 6.40234375 9.3359375 C5.85019489 12.46478103 6.5564795 15.34146184 7.02734375 18.4609375 C5.15469699 20.33358426 2.52974428 19.69701128 0.03515625 19.7890625 C-1.97265625 19.4609375 -1.97265625 19.4609375 -3.70703125 18.31640625 C-5.50393058 15.6820631 -5.37111024 13.68581755 -5.34765625 10.5234375 C-5.35539063 9.48316406 -5.363125 8.44289063 -5.37109375 7.37109375 C-4.85786791 3.6225325 -3.93154184 0.9186573 0 0 Z " fill="#000000" transform="translate(155.97265625,109.5390625)"/>
<path d="M0 0 C4.65504551 0.52606183 7.73214214 1.74166852 11.69140625 4.21875 C12.78759277 4.89591064 13.8837793 5.57307129 15.01318359 6.27075195 C15.59122742 6.63383453 16.16927124 6.99691711 16.76483154 7.3710022 C19.8559459 9.31232864 22.96636676 11.22234753 26.07421875 13.13671875 C26.71856873 13.53481247 27.3629187 13.93290619 28.02679443 14.34306335 C35.85373112 19.16682768 43.80074935 23.78439984 51.7505188 28.40185547 C52.9536339 29.10078149 54.15636855 29.8003629 55.35868835 30.50065613 C56.93844883 31.4205924 58.51970311 32.33796212 60.10107422 33.25512695 C63.13732828 35.08265835 66.06650898 37.01282277 69 39 C66 40 66 40 63.70117188 38.99047852 C62.79947266 38.45865967 61.89777344 37.92684082 60.96875 37.37890625 C59.94354248 36.78086182 58.91833496 36.18281738 57.86206055 35.56665039 C56.19784058 34.57459595 56.19784058 34.57459595 54.5 33.5625 C53.34139769 32.88123585 52.18229089 32.20082901 51.02270508 31.52124023 C47.96287149 29.72449164 44.91066407 27.91516217 41.85992432 26.10302734 C39.41998787 24.65602404 36.97544512 23.21691828 34.53060913 21.7782135 C27.33807406 17.54508343 20.15300005 13.29969542 13 9 C12.40141174 8.64025085 11.80282349 8.28050171 11.18609619 7.90985107 C9.3569893 6.8076517 7.53148719 5.6997215 5.70703125 4.58984375 C4.61495361 3.92718506 3.52287598 3.26452637 2.39770508 2.58178711 C1.6064624 2.05979736 0.81521973 1.53780762 0 1 C0 0.67 0 0.34 0 0 Z " fill="#000000" transform="translate(230,163)"/>
<path d="M0 0 C8.11086699 1.20991496 15.60088603 3.82311226 23.2421875 6.68579102 C25.25738829 7.44026612 27.27666856 8.1828739 29.296875 8.92382812 C35.01260595 11.03808998 40.58066254 13.18911687 46 16 C46 16.66 46 17.32 46 18 C36.83696215 15.99894958 28.31605345 12.99682727 19.625 9.5 C18.38175874 9.00848601 17.13826985 8.51759791 15.89453125 8.02734375 C10.47632725 5.87297661 5.19093907 3.66401443 0 1 C0 0.67 0 0.34 0 0 Z " fill="#000000" transform="translate(259,151)"/>
<path d="M0 0 C4.1366762 1.43192638 6.43222971 2.38855507 9.4375 5.625 C11.40400598 9.87265291 11.56266426 13.38799786 11 18 C10.67 18.66 10.34 19.32 10 20 C9.01 19.67 8.02 19.34 7 19 C6.63707867 17.67441447 6.31151223 16.33859965 6 15 C4.21171802 11.87260545 2.30870766 8.83151087 0.3984375 5.77734375 C-0.06304687 4.86082031 -0.52453125 3.94429688 -1 3 C-0.67 2.01 -0.34 1.02 0 0 Z " fill="#FBF8F8" transform="translate(154,72)"/>
<path d="M0 0 C4.70210119 1.61890524 8.56810402 4.15552342 12.6875 6.875 C13.41702881 7.35316162 14.14655762 7.83132324 14.89819336 8.32397461 C16.4533484 9.34493249 18.00710237 10.36802716 19.55957031 11.39306641 C22.07198884 13.04740202 24.59398271 14.68639107 27.1171875 16.32421875 C28.76599981 17.40307323 30.41444731 18.48248548 32.0625 19.5625 C32.85422607 20.07474121 33.64595215 20.58698242 34.46166992 21.11474609 C35.18717041 21.59379395 35.9126709 22.0728418 36.66015625 22.56640625 C37.30605713 22.98865479 37.95195801 23.41090332 38.61743164 23.84594727 C39.0736792 24.22678467 39.52992676 24.60762207 40 25 C40 25.66 40 26.32 40 27 C35.26777565 25.376737 31.38995127 22.80266974 27.25 20.0625 C25.74363571 19.07529783 24.23712059 18.08832576 22.73046875 17.1015625 C21.95622559 16.59270508 21.18198242 16.08384766 20.38427734 15.55957031 C17.98943971 13.99309245 15.58473655 12.44310366 13.17578125 10.8984375 C12.40266602 10.40206787 11.62955078 9.90569824 10.83300781 9.39428711 C9.34241313 8.43790233 7.85090477 7.48293978 6.35839844 6.52954102 C1.22360036 3.22360036 1.22360036 3.22360036 -1 1 C-0.67 0.67 -0.34 0.34 0 0 Z " fill="#000000" transform="translate(208,159)"/>
<path d="M0 0 C7.47834967 0.48827713 14.68925318 1.33405548 22 3 C21.01 4.65 20.02 6.3 19 8 C12.42465139 7.37968409 6.33307408 5.85102717 0 4 C0 2.68 0 1.36 0 0 Z " fill="#FBEEEE" transform="translate(174,118)"/>
<path d="M0 0 C3.67230705 3.07999946 4.56802365 5.2482602 5 10 C4.01 10.495 4.01 10.495 3 11 C2.67 10.34 2.34 9.68 2 9 C1.34 9 0.68 9 0 9 C-0.33 9.66 -0.66 10.32 -1 11 C-4.34510352 12.62734766 -6.18835834 13 -10 13 C-8.56501627 9.79111679 -6.78256013 7.42193016 -4.4375 4.8125 C-3.81746094 4.11769531 -3.19742188 3.42289063 -2.55859375 2.70703125 C-1.72141231 1.79011824 -0.8779528 0.8779528 0 0 Z " fill="#FFFFFF" transform="translate(159,57)"/>
<path d="M0 0 C2.94621217 1.74196195 4.89048814 3.56195421 7.0546875 6.21484375 C7.0546875 6.87484375 7.0546875 7.53484375 7.0546875 8.21484375 C3.0546875 8.21484375 3.0546875 8.21484375 0.6171875 5.83984375 C-0.2284375 4.97359375 -1.0740625 4.10734375 -1.9453125 3.21484375 C-5.80957762 1.24273603 -8.95272344 0.99522641 -13.2578125 1.08984375 C-14.32644531 1.10789063 -15.39507812 1.1259375 -16.49609375 1.14453125 C-17.70845703 1.17933594 -17.70845703 1.17933594 -18.9453125 1.21484375 C-18.6153125 0.22484375 -18.2853125 -0.76515625 -17.9453125 -1.78515625 C-11.32129671 -3.99316151 -6.11806336 -2.9743526 0 0 Z " fill="#000000" transform="translate(128.9453125,39.78515625)"/>
<path d="M0 0 C0 0.66 0 1.32 0 2 C-1.423125 2.5259375 -1.423125 2.5259375 -2.875 3.0625 C-6.34336062 4.7714341 -6.34336062 4.7714341 -7.375 8.6875 C-7.58125 9.780625 -7.7875 10.87375 -8 12 C-8.66 12 -9.32 12 -10 12 C-11.42041821 9.15916359 -11.31452272 7.14522722 -11 4 C-8.02080717 -0.52837311 -5.15974216 -0.39690324 0 0 Z " fill="#000000" transform="translate(149,85)"/>
<path d="M0 0 C0.61875 0.350625 1.2375 0.70125 1.875 1.0625 C2.57625 1.371875 3.2775 1.68125 4 2 C4.66 1.67 5.32 1.34 6 1 C6.33 2.65 6.66 4.3 7 6 C2.22426677 8.61895048 -1.84434881 7.83119431 -7 7 C-6 5 -6 5 -3 4 C-1.7058258 2.77119784 -1.7058258 2.77119784 0 0 Z " fill="#FCFCFC" transform="translate(244,130)"/>
<path d="M0 0 C5.28 1.32 10.56 2.64 16 4 C15.01 4.99 14.02 5.98 13 7 C9.00619455 6.73953443 5.64455666 5.60789264 2 4 C2 3.34 2 2.68 2 2 C1.34 2 0.68 2 0 2 C0 1.34 0 0.68 0 0 Z " fill="#FBF2F2" transform="translate(175,124)"/>
<path d="M0 0 C4.95998472 0.61632946 8.93671966 2.79835629 13.3125 5.0625 C14.05306641 5.43955078 14.79363281 5.81660156 15.55664062 6.20507812 C17.37387522 7.13128157 19.18732404 8.06490629 21 9 C17.48431326 10.17189558 17.0008148 9.83725505 13.76953125 8.34765625 C12.96708984 7.98349609 12.16464844 7.61933594 11.33789062 7.24414062 C10.50451172 6.85419922 9.67113281 6.46425781 8.8125 6.0625 C7.96751953 5.67642578 7.12253906 5.29035156 6.25195312 4.89257812 C4.16382265 3.93699299 2.08026396 2.97256217 0 2 C0 1.34 0 0.68 0 0 Z " fill="#000000" transform="translate(286,174)"/>
<path d="M0 0 C0.928125 0.0825 1.85625 0.165 2.8125 0.25 C3.1425 1.24 3.4725 2.23 3.8125 3.25 C-2.47321429 5.67857143 -2.47321429 5.67857143 -6.1875 4.25 C-4.36434338 1.00883268 -3.82500054 0.30000004 0 0 Z " fill="#000000" transform="translate(150.1875,94.75)"/>
<path d="M0 0 C1.46067199 0.45082469 2.91848032 0.91093537 4.375 1.375 C5.18710938 1.63023437 5.99921875 1.88546875 6.8359375 2.1484375 C9 3 9 3 11 5 C6.94393835 4.53199289 3.53411321 4.12046792 0 2 C0 1.34 0 0.68 0 0 Z " fill="#000000" transform="translate(239,144)"/>
<path d="M0 0 C2 1 2 1 2 1 Z " fill="#000000" transform="translate(216,155)"/>
</svg>
